<svg width="1440" height="1042" viewBox="0 0 1440 1042" fill="none" xmlns="http://www.w3.org/2000/svg">
<path d="M222.233 843.264V852.503H162.026L137.943 797.874H6.29008L-17.7928 852.503H-78V843.264L38.802 589H105.431L222.233 843.264ZM115.064 745.655L72.1166 647.645L29.1688 745.655H115.064Z" fill="#BC271C"/>
<path d="M-76.4842 851.382L-110 851.382L-110 590L39.2252 590" stroke="#BC271C" stroke-width="2"/>
<path d="M747.26 503L732.848 571.173H491.042L475.029 640.944H599.401C636.766 640.944 666.125 648.933 687.476 664.911C709.184 680.889 720.037 702.903 720.037 730.953C720.037 737.699 719.148 745.511 717.368 754.388L716.301 760.246C704.913 821.673 657.762 852.386 574.847 852.386H346.386L424.319 503H747.26ZM581.252 784.213C614.703 784.213 633.564 773.206 637.834 751.192L639.435 745.333C640.147 741.073 640.503 738.232 640.503 736.812C640.503 726.87 636.233 719.236 627.692 713.91C619.151 708.229 607.052 705.388 591.394 705.388H461.15L443.001 784.213H581.252Z" fill="#BC271C"/>
<path d="M424.964 504.34L308.438 504.34L309.122 851.163L349.728 851.163" stroke="#BC271C" stroke-width="2"/>
<path d="M231 850.996L307.77 504.839" stroke="#BC271C" stroke-width="2" stroke-dasharray="4 4"/>
<path d="M1425.98 413.342C1464.6 413.342 1494.79 421.813 1516.54 438.754C1538.73 455.25 1549.83 477.765 1549.83 506.298C1549.83 521.01 1546.95 536.168 1541.18 551.772L1538.51 559.129C1530.97 578.745 1520.31 595.241 1506.55 608.616C1493.23 621.545 1475.92 632.022 1454.61 640.047C1471.48 654.759 1479.91 673.707 1479.91 696.89C1479.91 711.157 1476.81 725.423 1470.59 739.69L1467.26 747.046C1451.72 783.604 1428.2 810.354 1396.68 827.296C1365.6 843.791 1323.21 852.039 1269.49 852.039H982.494L1176.93 413.342H1425.98ZM1242.86 497.604L1201.57 591.228H1359.39C1402 591.228 1428.64 577.408 1439.29 549.766L1441.96 542.41C1444.18 535.723 1445.29 530.373 1445.29 526.36C1445.29 517.443 1441.29 510.533 1433.3 505.629C1425.75 500.279 1414.66 497.604 1400.01 497.604H1242.86ZM1376.7 716.953C1379.36 710.265 1380.7 704.246 1380.7 698.897C1380.7 680.172 1365.38 670.809 1334.75 670.809H1166.28L1123 767.777H1293.46C1313.89 767.777 1330.98 763.988 1344.74 756.409C1358.94 748.384 1368.71 737.461 1374.04 723.64L1376.7 716.953Z" fill="#BC271C"/>
<path d="M1195.72 414.072L961.196 414.071L961.952 579.62L962.709 851.187L984.698 851.187" stroke="#BC271C" stroke-width="2"/>
<path d="M756 849.195L960.555 413.342" stroke="#BC271C" stroke-width="2" stroke-dasharray="4 4"/>
<line x1="89.5" y1="-2.18557e-08" x2="89.5" y2="1042" stroke="#BC271C"/>
<line x1="185.5" y1="-2.18557e-08" x2="185.5" y2="1042" stroke="#BC271C"/>
<line x1="281.5" y1="-2.18557e-08" x2="281.5" y2="1042" stroke="#BC271C"/>
<line x1="377.5" y1="-2.18557e-08" x2="377.5" y2="1042" stroke="#BC271C"/>
<line x1="473.5" y1="-2.18557e-08" x2="473.5" y2="1042" stroke="#BC271C"/>
<line x1="569.5" y1="-2.18557e-08" x2="569.5" y2="1042" stroke="#BC271C"/>
<line x1="665.5" y1="-2.18557e-08" x2="665.5" y2="1042" stroke="#BC271C"/>
<line x1="761.5" y1="-2.18557e-08" x2="761.5" y2="1042" stroke="#BC271C"/>
<line x1="857.5" y1="-2.18557e-08" x2="857.5" y2="1042" stroke="#BC271C"/>
<line x1="953.5" y1="-2.18557e-08" x2="953.5" y2="1042" stroke="#BC271C"/>
<line x1="1049.5" y1="-2.18557e-08" x2="1049.5" y2="1042" stroke="#BC271C"/>
<line x1="1145.5" y1="-2.18557e-08" x2="1145.5" y2="1042" stroke="#BC271C"/>
<line x1="1241.5" y1="-2.18557e-08" x2="1241.5" y2="1042" stroke="#BC271C"/>
<line x1="1337.5" y1="-2.18557e-08" x2="1337.5" y2="1042" stroke="#BC271C"/>
<line x1="1433.5" y1="-2.18557e-08" x2="1433.5" y2="1042" stroke="#BC271C"/>
<line x1="1728" y1="0.5" x2="-192" y2="0.500101" stroke="#BC271C"/>
<line x1="1728" y1="189.5" x2="-192" y2="189.5" stroke="#BC271C"/>
<line x1="1728" y1="378.5" x2="-192" y2="378.5" stroke="#BC271C"/>
<line x1="1728" y1="567.5" x2="-192" y2="567.5" stroke="#BC271C"/>
<line x1="1728" y1="756.5" x2="-192" y2="756.5" stroke="#BC271C"/>
<line x1="1728" y1="945.5" x2="-192" y2="945.5" stroke="#BC271C"/>
<line x1="1728" y1="96.5005" x2="-192" y2="96.5006" stroke="#BC271C"/>
<line x1="1728" y1="285.5" x2="-192" y2="285.501" stroke="#BC271C"/>
<line x1="1728" y1="474.5" x2="-192" y2="474.501" stroke="#BC271C"/>
<line x1="1728" y1="663.5" x2="-192" y2="663.501" stroke="#BC271C"/>
<line x1="1728" y1="852.5" x2="-192" y2="852.501" stroke="#BC271C"/>
<line x1="1728" y1="1041.5" x2="-192" y2="1041.5" stroke="#BC271C"/>
<rect x="256" y="189" width="413" height="108" fill="#BC271C"/>
</svg>
