<svg width="1440" height="1367" viewBox="0 0 1440 1367" fill="none" xmlns="http://www.w3.org/2000/svg">
<path d="M214.698 564.053C214.698 603.346 182.846 635.198 143.553 635.198C104.261 635.198 72.4082 603.346 72.4082 564.053C72.4082 524.761 104.261 492.908 143.553 492.908C182.846 492.908 214.698 524.761 214.698 564.053Z" fill="#F0C243"/>
<path fill-rule="evenodd" clip-rule="evenodd" d="M214.482 569.641L210.134 569.303C210.268 567.572 210.337 565.821 210.337 564.053C210.337 562.286 210.268 560.535 210.134 558.804L214.482 558.466C214.625 560.31 214.698 562.173 214.698 564.053C214.698 565.934 214.625 567.797 214.482 569.641ZM212.748 547.438L208.506 548.453C207.685 545.021 206.599 541.693 205.271 538.491L209.3 536.82C210.715 540.233 211.873 543.781 212.748 547.438ZM204.224 526.876L200.507 529.158C198.672 526.17 196.607 523.336 194.338 520.682L197.654 517.848C200.07 520.674 202.268 523.692 204.224 526.876ZM189.759 509.953L186.925 513.268C184.27 510.999 181.437 508.935 178.448 507.1L180.731 503.383C183.914 505.338 186.932 507.537 189.759 509.953ZM170.787 498.307L169.116 502.336C165.913 501.008 162.585 499.922 159.154 499.101L160.169 494.859C163.826 495.734 167.373 496.891 170.787 498.307ZM149.141 493.125L148.803 497.473C147.071 497.339 145.321 497.27 143.553 497.27C141.786 497.27 140.035 497.339 138.304 497.473L137.966 493.125C139.809 492.981 141.673 492.908 143.553 492.908C145.434 492.908 147.297 492.981 149.141 493.125ZM126.938 494.859L127.952 499.101C124.521 499.922 121.193 501.008 117.991 502.336L116.32 498.307C119.733 496.891 123.28 495.734 126.938 494.859ZM106.376 503.383L108.658 507.1C105.67 508.935 102.836 510.999 100.182 513.268L97.3477 509.953C100.174 507.537 103.192 505.338 106.376 503.383ZM89.4528 517.848L92.7681 520.682C90.4992 523.336 88.4349 526.17 86.5997 529.158L82.883 526.876C84.838 523.692 87.0366 520.674 89.4528 517.848ZM77.8067 536.82L81.8357 538.491C80.5076 541.693 79.4218 545.022 78.6008 548.453L74.3589 547.438C75.2339 543.781 76.3913 540.233 77.8067 536.82ZM72.6244 558.466C72.4812 560.31 72.4082 562.173 72.4082 564.053C72.4082 565.934 72.4812 567.797 72.6244 569.641L76.9729 569.303C76.8384 567.572 76.7698 565.821 76.7698 564.053C76.7698 562.286 76.8384 560.535 76.9729 558.804L72.6244 558.466ZM74.3589 580.669L78.6008 579.654C79.4218 583.085 80.5076 586.414 81.8357 589.616L77.8067 591.287C76.3913 587.874 75.2339 584.326 74.3589 580.669ZM82.883 601.231L86.5997 598.949C88.435 601.937 90.4992 604.771 92.7681 607.425L89.4528 610.259C87.0366 607.433 84.838 604.415 82.883 601.231ZM97.3477 618.154L100.182 614.839C102.836 617.108 105.67 619.172 108.658 621.007L106.376 624.724C103.192 622.769 100.174 620.57 97.3477 618.154ZM116.32 629.8L117.991 625.771C121.193 627.099 124.521 628.185 127.952 629.006L126.938 633.248C123.28 632.373 119.733 631.215 116.32 629.8ZM137.966 634.982L138.304 630.634C140.035 630.768 141.786 630.837 143.553 630.837C145.321 630.837 147.072 630.768 148.803 630.634L149.141 634.982C147.297 635.126 145.434 635.198 143.553 635.198C141.673 635.198 139.809 635.126 137.966 634.982ZM160.169 633.248L159.154 629.006C162.585 628.185 165.913 627.099 169.116 625.771L170.787 629.8C167.373 631.215 163.826 632.373 160.169 633.248ZM180.731 624.724L178.448 621.007C181.437 619.172 184.27 617.108 186.925 614.839L189.759 618.154C186.932 620.57 183.914 622.769 180.731 624.724ZM197.654 610.259L194.338 607.425C196.607 604.771 198.672 601.937 200.507 598.949L204.224 601.231C202.268 604.415 200.07 607.433 197.654 610.259ZM209.3 591.287L205.271 589.616C206.599 586.414 207.685 583.085 208.506 579.654L212.748 580.669C211.873 584.326 210.715 587.874 209.3 591.287Z" fill="#BC271C"/>
<path d="M279.618 555.16C279.618 582.046 271.244 608.259 255.666 630.133C240.089 652.007 218.087 668.449 192.739 677.158C167.391 685.867 139.965 686.408 114.295 678.705C88.6256 671.002 65.9973 655.441 49.5753 634.198C33.1532 612.955 23.7587 587.093 22.7058 560.228C21.6528 533.363 28.9941 506.84 43.7028 484.369C58.4115 461.897 79.7519 444.601 104.739 434.899C129.727 425.197 157.111 423.575 183.062 430.259L151.112 555.16H279.618Z" fill="#F0C243"/>
<path fill-rule="evenodd" clip-rule="evenodd" d="M151.112 555.16L183.062 430.259C181.651 429.896 180.236 429.557 178.817 429.242C154.14 423.775 128.368 425.724 104.739 434.899C79.7519 444.601 58.4115 461.897 43.7028 484.369C28.9941 506.84 21.6528 533.363 22.7058 560.228C23.7587 587.093 33.1532 612.955 49.5753 634.198C65.9973 655.441 88.6256 671.002 114.295 678.705C139.965 686.408 167.391 685.867 192.739 677.158C218.087 668.449 240.089 652.007 255.666 630.133C270.396 609.448 278.686 584.884 279.544 559.54C279.593 558.082 279.618 556.622 279.618 555.16H151.112ZM275.177 559.54H145.486L177.731 433.487C153.936 428.245 129.094 430.138 106.314 438.983C82.1755 448.356 61.5598 465.065 47.3507 486.773C33.1415 508.482 26.0496 534.104 27.0667 560.056C28.0839 586.008 37.1594 610.992 53.0237 631.514C68.888 652.035 90.7478 667.068 115.545 674.509C140.343 681.95 166.839 681.428 191.326 673.014C215.813 664.601 237.067 648.718 252.115 627.587C266.316 607.645 274.321 583.97 275.177 559.54Z" fill="#BC271C"/>
<path fill-rule="evenodd" clip-rule="evenodd" d="M185.554 406.645L189.785 407.691L153.566 554.356H309.855V558.718H148L185.554 406.645Z" fill="#BC271C"/>
<path fill-rule="evenodd" clip-rule="evenodd" d="M1131.39 359H1140.63V361.899H1133.76L1131.57 367.98L1128.47 367.094L1131.39 359ZM1156.75 359H1172.87V361.899H1156.75V359ZM1188.99 359H1205.11V361.899H1188.99V359ZM1221.23 359H1237.35V361.899H1221.23V359ZM1253.47 359H1269.59V361.899H1253.47V359ZM1285.71 359H1296L1292.76 367.98L1289.66 367.094L1291.53 361.899H1285.71V359ZM1287.65 382.155L1282.54 396.331L1279.44 395.444L1284.55 381.269L1287.65 382.155ZM1118.25 395.444L1123.36 381.269L1126.46 382.155L1121.35 396.331L1118.25 395.444ZM1277.43 410.506L1272.31 424.681L1269.21 423.794L1274.33 409.619L1277.43 410.506ZM1108.02 423.794L1113.13 409.619L1116.23 410.506L1111.12 424.681L1108.02 423.794ZM1097.8 452.144L1102.91 437.969L1106.01 438.856L1100.9 453.031L1097.8 452.144ZM1267.2 438.856L1262.09 453.031L1258.99 452.144L1264.1 437.969L1267.2 438.856ZM1087.57 480.494L1092.69 466.319L1095.79 467.206L1090.67 481.381L1087.57 480.494ZM1256.98 467.206L1251.87 481.381L1248.77 480.494L1253.88 466.319L1256.98 467.206ZM1077.35 508.845L1082.46 494.669L1085.56 495.556L1080.45 509.731L1077.35 508.845ZM1246.75 495.556L1241.64 509.731L1238.54 508.845L1243.65 494.669L1246.75 495.556ZM1236.53 523.906L1233.61 532H1224.37V529.101H1231.24L1233.43 523.02L1236.53 523.906ZM1072.24 523.02L1075.34 523.906L1073.47 529.101H1079.29V532H1069L1072.24 523.02ZM1111.53 532H1095.41V529.101H1111.53V532ZM1143.77 532H1127.65V529.101H1143.77V532ZM1176.01 532H1159.89V529.101H1176.01V532ZM1208.25 532H1192.13V529.101H1208.25V532Z" fill="#BC271C"/>
<path fill-rule="evenodd" clip-rule="evenodd" d="M1440 326H0V321H1440V326Z" fill="#BC271C"/>
<path fill-rule="evenodd" clip-rule="evenodd" d="M1440 224H0V220H1440V224Z" fill="#BC271C"/>
<path d="M824.264 795.052V896.889M983.5 816.897V896.889" stroke="#BC271C" stroke-width="5" stroke-dasharray="8 8"/>
<path d="M835 896.038H971M835 896.038L850.975 880M835 896.038L850.975 914M971 896.038L956.968 880M971 896.038L956.968 910.472" stroke="#BC271C" stroke-width="5"/>
<path d="M905.5 882L896 915M915 882L905.5 915" stroke="#BC271C" stroke-width="5"/>
<path d="M0 1149H1437.2M2.80234 1192H1440" stroke="#BC271C" stroke-width="7"/>
<path d="M1067 320L1112 227" stroke="#BC271C" stroke-width="4" stroke-dasharray="8 8"/>
<path d="M329 319L374 226" stroke="#BC271C" stroke-width="4" stroke-dasharray="8 8"/>
<path d="M284 320L329 227" stroke="#BC271C" stroke-width="4" stroke-dasharray="8 8"/>
<path d="M239 321L284 228" stroke="#BC271C" stroke-width="4" stroke-dasharray="8 8"/>
<path d="M194 322L239 229" stroke="#BC271C" stroke-width="4" stroke-dasharray="8 8"/>
<path d="M149 323L194 230" stroke="#BC271C" stroke-width="4" stroke-dasharray="8 8"/>
<path d="M104 324L149 231" stroke="#BC271C" stroke-width="4" stroke-dasharray="8 8"/>
<path d="M59 325L104 232" stroke="#BC271C" stroke-width="4" stroke-dasharray="8 8"/>
<path d="M14 326L59 233" stroke="#BC271C" stroke-width="4" stroke-dasharray="8 8"/>
<path d="M1112 319L1157 226" stroke="#BC271C" stroke-width="4" stroke-dasharray="8 8"/>
<path d="M1157 319L1202 226" stroke="#BC271C" stroke-width="4" stroke-dasharray="8 8"/>
<path d="M1202 319L1247 225" stroke="#BC271C" stroke-width="4" stroke-dasharray="8 8"/>
<path d="M1247 318L1292 225" stroke="#BC271C" stroke-width="4" stroke-dasharray="8 8"/>
<path d="M1292 318L1337 224" stroke="#BC271C" stroke-width="4" stroke-dasharray="8 8"/>
<path d="M1337 317L1382 224" stroke="#BC271C" stroke-width="4" stroke-dasharray="8 8"/>
<path d="M1382 317L1427 223" stroke="#BC271C" stroke-width="4" stroke-dasharray="8 8"/>
<line x1="40.5" y1="325" x2="40.5" y2="1367" stroke="#BC271C"/>
<line x1="136.5" y1="325" x2="136.5" y2="1367" stroke="#BC271C"/>
<line x1="232.5" y1="325" x2="232.5" y2="1367" stroke="#BC271C"/>
<line x1="328.5" y1="325" x2="328.5" y2="1367" stroke="#BC271C"/>
<line x1="424.5" y1="325" x2="424.5" y2="1367" stroke="#BC271C"/>
<line x1="520.5" y1="325" x2="520.5" y2="1367" stroke="#BC271C"/>
<line x1="616.5" y1="325" x2="616.5" y2="1367" stroke="#BC271C"/>
<line x1="712.5" y1="325" x2="712.5" y2="1367" stroke="#BC271C"/>
<line x1="808.5" y1="325" x2="808.5" y2="1367" stroke="#BC271C"/>
<line x1="904.5" y1="325" x2="904.5" y2="1367" stroke="#BC271C"/>
<line x1="1000.5" y1="325" x2="1000.5" y2="1367" stroke="#BC271C"/>
<line x1="1096.5" y1="325" x2="1096.5" y2="1367" stroke="#BC271C"/>
<line x1="1192.5" y1="325" x2="1192.5" y2="1367" stroke="#BC271C"/>
<line x1="1288.5" y1="325" x2="1288.5" y2="1367" stroke="#BC271C"/>
<line x1="1384.5" y1="325" x2="1384.5" y2="1367" stroke="#BC271C"/>
<line x1="1440" y1="325.5" x2="2.24636e-08" y2="325.5" stroke="#BC271C"/>
<line x1="1440" y1="514.5" x2="2.24636e-08" y2="514.5" stroke="#BC271C"/>
<line x1="1440" y1="703.5" x2="2.24636e-08" y2="703.5" stroke="#BC271C"/>
<line x1="1440" y1="892.5" x2="2.24636e-08" y2="892.5" stroke="#BC271C"/>
<line x1="1440" y1="1081.5" x2="2.24636e-08" y2="1081.5" stroke="#BC271C"/>
<line x1="1440" y1="1270.5" x2="2.24636e-08" y2="1270.5" stroke="#BC271C"/>
<line x1="1440" y1="421.5" x2="2.24636e-08" y2="421.5" stroke="#BC271C"/>
<line x1="1440" y1="610.5" x2="2.24636e-08" y2="610.5" stroke="#BC271C"/>
<line x1="1440" y1="799.5" x2="2.24636e-08" y2="799.5" stroke="#BC271C"/>
<line x1="1440" y1="988.5" x2="2.24636e-08" y2="988.5" stroke="#BC271C"/>
<line x1="1440" y1="1177.5" x2="2.24636e-08" y2="1177.5" stroke="#BC271C"/>
<line x1="1440" y1="1366.5" x2="2.24636e-08" y2="1366.5" stroke="#BC271C"/>
<rect width="1440" height="220" fill="#F0C243"/>
</svg>
