<svg width="1127" height="627" viewBox="0 0 1127 627" fill="none" xmlns="http://www.w3.org/2000/svg">
<rect width="1072.82" height="602.663" fill="#BC271C"/>
<rect x="17.4893" y="11.8923" width="1108.81" height="602.326" fill="#F0C243"/>
<rect x="34.9775" y="23.7854" width="1060.94" height="602.326" fill="#BC271C"/>
<path fill-rule="evenodd" clip-rule="evenodd" d="M177.591 155L197.824 182.782L194.285 185.359L179.911 165.622V529.108H855.45L844.677 518.934L847.683 515.751L864.272 531.418L847.563 545.033L844.797 541.639L854.804 533.486H175.533V166.474L163.703 185.238L160 182.903L177.591 155Z" fill="#F0C243"/>
<path d="M260.545 470.748L260.518 470.826H260.256L259.809 464.969H248.172L242.499 470.826H242.131L242.157 470.748L258.811 453.595H259.179L260.545 470.748ZM259.783 464.706L258.916 453.91L248.435 464.706H259.783Z" fill="#F0C243"/>
<path d="M333.952 470.669L333.873 470.826H333.164L332.77 465.284H321.58L316.247 470.826H315.302L315.354 470.669L331.798 453.595H332.744L333.952 470.669ZM332.744 464.601L332.034 454.409L322.236 464.601H332.744Z" fill="#F0C243"/>
<path d="M398.58 470.616L398.501 470.826H397.319L397.004 465.573H386.26L381.27 470.826H379.746L379.825 470.616L396.032 453.595H397.529L398.58 470.616ZM396.951 464.47L396.374 454.908L387.311 464.47H396.951Z" fill="#F0C243"/>
<path d="M463.259 471.606L463.128 471.921H461.263L461.053 467.114H450.966L446.474 471.921H444.084L444.215 471.606L460.134 454.689H462.419L463.259 471.606ZM460.974 465.407L460.606 456.765L452.542 465.407H460.974Z" fill="#F0C243"/>
<path d="M529.008 472.621L528.824 473.015H526.433L526.302 468.576H516.741L512.669 473.015H509.596L509.753 472.621L525.383 455.784H528.377L529.008 472.621ZM526.249 466.37L526.013 458.463L518.763 466.37H526.249Z" fill="#F0C243"/>
<path d="M603.511 472.516L603.301 473.015H600.28L600.228 468.996H591.297L587.672 473.015H583.811L584.021 472.516L599.361 455.784H603.091L603.511 472.516ZM600.202 466.212L600.123 459.198L593.792 466.212H600.202Z" fill="#F0C243"/>
<path d="M673.169 472.411L672.907 473.015H669.282L669.308 469.364H660.902L657.671 473.015H653.127L653.39 472.411L668.441 455.784H672.933L673.169 472.411ZM669.334 466.107L669.387 459.75L663.765 466.107H669.334Z" fill="#F0C243"/>
<path d="M749.942 472.306L749.627 473.015H745.372L745.477 469.732H737.623L734.812 473.015H729.559L729.874 472.306L744.61 455.784H749.916L749.942 472.306ZM745.582 466.002L745.739 460.302L740.827 466.002H745.582Z" fill="#F0C243"/>
<path d="M817.568 455.784L817.385 472.227L817.043 473.015H812.21L812.341 470.073H805.065L802.596 473.015H796.712L797.053 472.227L811.527 455.784H817.568ZM812.551 465.923L812.814 460.853L808.559 465.923H812.551Z" fill="#F0C243"/>
<path d="M261.62 359.657L261.594 359.736H261.331L259.571 353.878H247.961L243.574 359.736H243.232V359.657L256.077 342.504H256.419L261.62 359.657ZM259.492 353.616L256.235 342.82L248.144 353.616H259.492Z" fill="#F0C243"/>
<path d="M335.005 359.578L334.979 359.736H334.217L332.614 354.194H321.424L317.327 359.736H316.434L316.486 359.578L329.095 342.504H330.014L335.005 359.578ZM332.404 353.484L329.436 343.319L321.924 353.484H332.404Z" fill="#F0C243"/>
<path d="M399.656 359.526L399.63 359.736H398.369L396.898 354.509H386.102L382.32 359.736H380.901L380.954 359.526L393.379 342.504H394.823L399.656 359.526ZM396.583 353.379L393.904 343.792L386.943 353.379H396.583Z" fill="#F0C243"/>
<path d="M464.363 360.516L464.285 360.831H462.341L461.08 356.05H450.914L447.526 360.831H445.293L445.372 360.516L457.507 343.599H459.766L464.363 360.516ZM460.607 354.29L458.322 345.622L452.175 354.29H460.607Z" fill="#F0C243"/>
<path d="M530.112 361.531L530.033 361.925H527.485L526.382 357.538H516.741L513.694 361.925H510.831L510.91 361.531L522.809 344.693H525.725L530.112 361.531ZM525.804 355.253L523.834 347.346L518.344 355.253H525.804Z" fill="#F0C243"/>
<path d="M604.537 361.531L604.459 361.925H601.911L600.807 357.538H591.167L588.12 361.925H585.257L585.336 361.531L597.235 344.693H600.151L604.537 361.531ZM600.229 355.253L598.259 347.346L592.769 355.253H600.229Z" fill="#F0C243"/>
<path d="M674.273 361.321L674.141 361.925H670.359L669.571 358.3H661.086L658.696 361.925H654.44L654.572 361.321L665.919 344.693H670.359L674.273 361.321ZM668.861 354.99L667.495 348.607L663.266 354.99H668.861Z" fill="#F0C243"/>
<path d="M751.044 361.216L750.886 361.925H746.473L745.843 358.694H737.884L735.809 361.925H730.896L731.054 361.216L742.113 344.693H747.34L751.044 361.216ZM745.107 354.885L743.978 349.185L740.327 354.885H745.107Z" fill="#F0C243"/>
<path d="M818.486 361.137L818.302 361.925H813.311L812.812 359.036H805.405L803.592 361.925H798.076L798.234 361.137L809.056 344.693H814.993L818.486 361.137ZM812.077 354.78L811.184 349.737L808.058 354.78H812.077Z" fill="#F0C243"/>
<path d="M262.672 246.378V246.457H262.383L259.309 240.599H247.699L244.626 246.457H244.337V246.378L253.347 229.225H253.662L262.672 246.378ZM259.178 240.336L253.504 229.54L247.831 240.336H259.178Z" fill="#F0C243"/>
<path d="M336.08 246.299V246.457H335.292L332.429 240.914H321.239L318.376 246.457H317.588V246.299L326.414 229.225H327.281L336.08 246.299ZM332.061 240.205L326.834 230.039L321.607 240.205H332.061Z" fill="#F0C243"/>
<path d="M400.76 246.247V246.457H399.447L396.82 241.229H385.998L383.371 246.457H382.058V246.247L390.7 229.225H392.118L400.76 246.247ZM396.242 240.074L391.409 230.486L386.576 240.074H396.242Z" fill="#F0C243"/>
<path d="M465.467 247.235V247.551H463.418L461.107 242.796H450.862L448.551 247.551H446.502V247.235L454.881 230.319H457.088L465.467 247.235ZM460.214 240.984L455.985 232.342L451.755 240.984H460.214Z" fill="#F0C243"/>
<path d="M531.242 248.251V248.645H528.563L526.514 244.285H516.795L514.746 248.645H512.066V248.251L520.209 231.414H523.099L531.242 248.251ZM525.384 241.921L521.654 234.014L517.924 241.921H525.384Z" fill="#F0C243"/>
<path d="M605.77 248.146V248.645H602.434L600.648 244.705H591.507L589.721 248.645H586.385V248.146L594.265 231.414H597.89L605.77 248.146ZM599.282 241.763L596.078 234.724L592.873 241.763H599.282Z" fill="#F0C243"/>
<path d="M675.403 248.041V248.645H671.463L669.887 245.073H661.271L659.695 248.645H655.755V248.041L663.399 231.414H667.759L675.403 248.041ZM668.39 241.658L665.579 235.249L662.768 241.658H668.39Z" fill="#F0C243"/>
<path d="M752.148 247.936V248.645H747.551L746.212 245.467H738.174L736.834 248.645H732.237V247.936L739.619 231.414H744.767L752.148 247.936ZM744.583 241.553L742.193 235.853L739.802 241.553H744.583Z" fill="#F0C243"/>
<path d="M819.563 247.857V248.645H814.415L813.285 245.809H805.72L804.591 248.645H799.442V247.857L806.587 231.414H812.419L819.563 247.857ZM811.526 241.448L809.503 236.431L807.48 241.448H811.526Z" fill="#F0C243"/>
<path fill-rule="evenodd" clip-rule="evenodd" d="M236.824 241.805H178.269V240.163H236.824V241.805ZM311.796 241.805H269.932V240.163H311.796V241.805ZM374.182 241.805H344.904V240.163H374.182V241.805ZM440.398 241.805H408.384V240.163H440.398V241.805ZM506.615 241.805H473.506V240.163H506.615V241.805ZM578.577 241.805H537.26V240.163H578.577V241.805ZM648.898 241.805H613.601V240.163H648.898V241.805ZM725.786 241.805H686.658V240.163H725.786V241.805ZM794.738 241.805H758.894V240.163H794.738V241.805ZM257.345 256.033V331.279H255.704V256.033H257.345ZM329.855 256.033V331.279H328.213V256.033H329.855ZM392.241 256.033V331.279H390.599V256.033H392.241ZM456.542 256.033V331.279H454.9V256.033H456.542ZM524.4 256.033V331.279H522.758V256.033H524.4ZM597.457 256.033V331.279H595.815V256.033H597.457ZM666.683 256.033V331.279H665.042V256.033H666.683ZM741.382 256.033V331.279H739.74V256.033H741.382ZM813.071 256.033V331.279H811.429V256.033H813.071ZM236.824 352.622H178.269V350.98H236.824V352.622ZM311.796 352.622H269.932V350.98H311.796V352.622ZM374.182 352.622H344.904V350.98H374.182V352.622ZM440.398 352.622H408.384V350.98H440.398V352.622ZM506.615 352.622H473.506V350.98H506.615V352.622ZM578.577 352.622H537.26V350.98H578.577V352.622ZM648.898 352.622H613.601V350.98H648.898V352.622ZM725.786 352.622H686.658V350.98H725.786V352.622ZM794.738 352.622H758.894V350.98H794.738V352.622ZM257.345 375.059V445.927H255.704V375.059H257.345ZM329.855 375.059V445.927H328.213V375.059H329.855ZM392.241 375.059V445.927H390.599V375.059H392.241ZM456.542 375.059V445.927H454.9V375.059H456.542ZM524.4 375.059V445.927H522.758V375.059H524.4ZM597.457 375.059V445.927H595.815V375.059H597.457ZM666.683 375.059V445.927H665.042V375.059H666.683ZM741.382 375.059V445.927H739.74V375.059H741.382ZM813.071 375.059V445.927H811.429V375.059H813.071ZM236.824 464.533H178.269V462.891H236.824V464.533ZM311.796 464.533H269.932V462.891H311.796V464.533ZM374.182 464.533H344.904V462.891H374.182V464.533ZM440.398 464.533H408.384V462.891H440.398V464.533ZM506.615 464.533H473.506V462.891H506.615V464.533ZM578.577 464.533H537.26V462.891H578.577V464.533ZM648.898 464.533H613.601V462.891H648.898V464.533ZM725.786 464.533H686.658V462.891H725.786V464.533ZM794.738 464.533H758.894V462.891H794.738V464.533ZM257.345 481.498V531.844H255.704V481.498H257.345ZM329.855 481.498V531.844H328.213V481.498H329.855ZM392.241 481.498V531.844H390.599V481.498H392.241ZM456.542 481.498V531.844H454.9V481.498H456.542ZM524.4 481.498V531.844H522.758V481.498H524.4ZM597.457 481.498V531.844H595.815V481.498H597.457ZM666.683 481.498V531.844H665.042V481.498H666.683ZM741.382 481.498V531.844H739.74V481.498H741.382ZM813.071 481.498V531.844H811.429V481.498H813.071Z" fill="#F0C243"/>
<path d="M90.288 48.6375L77.4409 71.955L51.2607 76.7435L69.8022 96.1748L66.7466 122.338L90.288 111.859L114.315 122.338L112.024 96.1748L129.246 76.7435L103.621 71.955L90.288 48.6375Z" fill="#F0C243"/>
</svg>
