<svg width="1036" height="555" viewBox="0 0 1036 555" fill="none" xmlns="http://www.w3.org/2000/svg">
<path d="M0 41.1097C0 18.4055 18.4054 0 41.1097 0H419.045V538.537H41.1097C18.4055 538.537 0 520.132 0 497.428V41.1097Z" fill="#BC271C"/>
<path d="M9 50.1097C9 27.4055 27.4054 9 50.1097 9H428.045V547.537H50.1097C27.4055 547.537 9 529.132 9 506.428V50.1097Z" fill="#F0C243"/>
<path d="M19 57.1097C19 34.4055 37.4054 16 60.1097 16H438.045V554.537H60.1097C37.4055 554.537 19 536.132 19 513.428V57.1097Z" fill="#BC271C"/>
<path d="M1014 132.611V422.389C1013.81 422.381 1013.61 422.381 1013.42 422.381C998.382 422.381 986.196 435.038 986.196 450.642V451H589.881V450.642C589.881 435.16 577.874 422.575 563 422.381V131.903C577.757 131.71 589.694 119.325 589.881 104H986.196V104.358C986.196 119.969 998.382 132.619 1013.42 132.619C1013.61 132.619 1013.81 132.619 1014 132.611Z" fill="#BC271C"/>
<path d="M1026 132.611V422.389C1025.81 422.381 1025.61 422.381 1025.42 422.381C1010.38 422.381 998.196 435.038 998.196 450.642V451H601.881V450.642C601.881 435.16 589.874 422.575 575 422.381V131.903C589.757 131.71 601.694 119.325 601.881 104H998.196V104.358C998.196 119.969 1010.38 132.619 1025.42 132.619C1025.61 132.619 1025.81 132.619 1026 132.611Z" fill="#F0C243"/>
<path d="M1036 132.611V422.389C1035.81 422.381 1035.61 422.381 1035.42 422.381C1020.38 422.381 1008.2 435.038 1008.2 450.642V451H611.881V450.642C611.881 435.16 599.874 422.575 585 422.381V131.903C599.757 131.71 611.694 119.325 611.881 104H1008.2V104.358C1008.2 119.969 1020.38 132.619 1035.42 132.619C1035.61 132.619 1035.81 132.619 1036 132.611Z" fill="#BC271C"/>
<path d="M190.914 370H81V486.974H190.914V370Z" fill="#F0C243"/>
<path d="M88.8647 370V394.575H136.072V370H140.614V422.685H136.072V398.11H88.8647V422.685H84.3184V370H88.8647Z" fill="#BC271C"/>
<path d="M195.143 425.166C199.425 427.759 201.574 431.293 201.574 435.777C201.574 438.085 200.968 440.604 199.753 443.337L199.271 444.389C196.601 450.059 191.752 454.262 184.719 456.991C187.385 459.303 188.72 462.136 188.72 465.5C188.72 467.672 188.191 469.877 187.142 472.115L186.66 473.168C183.99 478.907 179.584 483.139 173.439 485.872C167.297 488.602 159.049 490.005 148.703 490.072L120.324 490.179H94.9785L130.394 421.288H177.2C184.873 421.28 190.861 422.581 195.143 425.166ZM165.191 465.703C165.191 464.861 164.785 464.215 163.975 463.761C163.165 463.306 161.996 463.077 160.461 463.077H134.266L129.293 472.739H155.974C160.179 472.739 162.926 471.306 164.218 468.436L164.709 467.384C165.029 466.822 165.191 466.265 165.191 465.703ZM146.758 438.717L142.028 447.953H166.888C168.905 447.953 170.603 447.606 171.98 446.908C173.358 446.207 174.364 445.191 175.017 443.861L175.499 442.809C175.742 442.181 175.866 441.656 175.866 441.235C175.866 439.551 174.288 438.713 171.132 438.713H146.758V438.717Z" fill="#BC271C"/>
<path fill-rule="evenodd" clip-rule="evenodd" d="M377.538 167.37H81V166H377.538V167.37Z" fill="#F0C243"/>
<path fill-rule="evenodd" clip-rule="evenodd" d="M377.538 235.674H81V234.304H377.538V235.674Z" fill="#F0C243"/>
<path fill-rule="evenodd" clip-rule="evenodd" d="M1010 196H609V195H1010V196Z" fill="#F0C243"/>
<path fill-rule="evenodd" clip-rule="evenodd" d="M1010 203H609V202H1010V203Z" fill="#F0C243"/>
<path fill-rule="evenodd" clip-rule="evenodd" d="M611 276H958V409H611V276ZM611.912 276.973V408.027H957.088V276.973H611.912Z" fill="#F0C243"/>
<path fill-rule="evenodd" clip-rule="evenodd" d="M801.047 408.514L800.757 276.487L801.061 276.486L801.351 408.513L801.047 408.514Z" fill="#F0C243"/>
<path fill-rule="evenodd" clip-rule="evenodd" d="M957.543 298.545H611.15V298.22H957.543V298.545Z" fill="#F0C243"/>
<path fill-rule="evenodd" clip-rule="evenodd" d="M957.848 320.603H611.456V320.279H957.848V320.603Z" fill="#F0C243"/>
<path fill-rule="evenodd" clip-rule="evenodd" d="M957.848 342.662H611.456V342.338H957.848V342.662Z" fill="#F0C243"/>
<path fill-rule="evenodd" clip-rule="evenodd" d="M957.848 364.721H611.456V364.396H957.848V364.721Z" fill="#F0C243"/>
<path fill-rule="evenodd" clip-rule="evenodd" d="M957.848 386.779H611.456V386.455H957.848V386.779Z" fill="#F0C243"/>
<path fill-rule="evenodd" clip-rule="evenodd" d="M966 239H609V238H966V239Z" fill="#F0C243"/>
<path fill-rule="evenodd" clip-rule="evenodd" d="M354.114 399.37H219V398H354.114V399.37Z" fill="#F0C243"/>
<path fill-rule="evenodd" clip-rule="evenodd" d="M354.114 440.37H219V439H354.114V440.37Z" fill="#F0C243"/>
<path fill-rule="evenodd" clip-rule="evenodd" d="M354.114 481.37H219V480H354.114V481.37Z" fill="#F0C243"/>
</svg>
