<svg width="1042" height="684" viewBox="0 0 1042 684" fill="none" xmlns="http://www.w3.org/2000/svg">
<path d="M0 0H1041.78V684H0V0Z" fill="#BC271C"/>
<path d="M64.8926 356.383C64.8926 309.695 102.859 271.846 149.692 271.846H332.616C379.45 271.846 417.416 309.695 417.416 356.383V536.325C417.416 583.013 379.45 620.862 332.616 620.862H149.692C102.859 620.862 64.8926 583.013 64.8926 536.325V356.383Z" fill="#F0C243"/>
<path d="M58.7539 62.2617H491.077V243.785H58.7539V62.2617Z" fill="#F0C243"/>
<path d="M961.984 64.0156H1014.6V153.462H961.984V64.0156Z" fill="#F0C243"/>
<path d="M99.0928 390.417C99.0928 343.82 136.896 306.046 183.529 306.046H300.533C347.166 306.046 384.97 343.82 384.97 390.417V504.921C384.97 551.518 347.166 589.292 300.533 589.292H183.529C136.896 589.292 99.0928 551.518 99.0928 504.921V390.417Z" fill="#BC271C"/>
<path d="M970.754 77.1694H1005.83V136.8H970.754V77.1694Z" fill="#BC271C"/>
<path fill-rule="evenodd" clip-rule="evenodd" d="M987.854 102.646C991.996 102.646 995.354 99.2882 995.354 95.1461C995.354 91.004 991.996 87.6461 987.854 87.6461C983.712 87.6461 980.354 91.004 980.354 95.1461C980.354 99.2882 983.712 102.646 987.854 102.646ZM987.854 106.108C993.908 106.108 998.816 101.2 998.816 95.1461C998.816 89.0922 993.908 84.1846 987.854 84.1846C981.8 84.1846 976.893 89.0922 976.893 95.1461C976.893 101.2 981.8 106.108 987.854 106.108Z" fill="#F0C243"/>
<path fill-rule="evenodd" clip-rule="evenodd" d="M985.661 113.123H990.923V134.169H985.661V113.123Z" fill="#F0C243"/>
<path d="M503.354 64.0156H806.769V326.216H503.354V64.0156Z" fill="#BC271C"/>
<path d="M562.984 103.477C562.984 111.71 556.114 118.385 547.638 118.385C539.163 118.385 532.292 111.71 532.292 103.477C532.292 95.2437 539.163 88.5693 547.638 88.5693C556.114 88.5693 562.984 95.2437 562.984 103.477Z" fill="#F0C243"/>
<path d="M562.984 149.077C562.984 157.31 556.114 163.985 547.638 163.985C539.163 163.985 532.292 157.31 532.292 149.077C532.292 140.844 539.163 134.169 547.638 134.169C556.114 134.169 562.984 140.844 562.984 149.077Z" fill="#F0C243"/>
<path d="M562.984 194.238C562.984 202.714 556.114 209.584 547.638 209.584C539.163 209.584 532.292 202.714 532.292 194.238C532.292 185.763 539.163 178.892 547.638 178.892C556.114 178.892 562.984 185.763 562.984 194.238Z" fill="#F0C243"/>
<path d="M562.984 240.715C562.984 248.706 556.114 255.185 547.638 255.185C539.163 255.185 532.292 248.706 532.292 240.715C532.292 232.724 539.163 226.246 547.638 226.246C556.114 226.246 562.984 232.724 562.984 240.715Z" fill="#F0C243"/>
<path d="M562.984 286.754C562.984 294.987 556.114 301.662 547.638 301.662C539.163 301.662 532.292 294.987 532.292 286.754C532.292 278.521 539.163 271.846 547.638 271.846C556.114 271.846 562.984 278.521 562.984 286.754Z" fill="#F0C243"/>
<path d="M605.077 103.477C605.077 111.71 598.403 118.385 590.169 118.385C581.936 118.385 575.262 111.71 575.262 103.477C575.262 95.2437 581.936 88.5693 590.169 88.5693C598.403 88.5693 605.077 95.2437 605.077 103.477Z" fill="#F0C243"/>
<path d="M605.077 149.077C605.077 157.31 598.403 163.985 590.169 163.985C581.936 163.985 575.262 157.31 575.262 149.077C575.262 140.844 581.936 134.169 590.169 134.169C598.403 134.169 605.077 140.844 605.077 149.077Z" fill="#F0C243"/>
<path d="M605.077 194.238C605.077 202.714 598.403 209.584 590.169 209.584C581.936 209.584 575.262 202.714 575.262 194.238C575.262 185.763 581.936 178.892 590.169 178.892C598.403 178.892 605.077 185.763 605.077 194.238Z" fill="#F0C243"/>
<path d="M605.077 240.715C605.077 248.706 598.403 255.185 590.169 255.185C581.936 255.185 575.262 248.706 575.262 240.715C575.262 232.724 581.936 226.246 590.169 226.246C598.403 226.246 605.077 232.724 605.077 240.715Z" fill="#F0C243"/>
<path d="M605.077 286.754C605.077 294.987 598.403 301.662 590.169 301.662C581.936 301.662 575.262 294.987 575.262 286.754C575.262 278.521 581.936 271.846 590.169 271.846C598.403 271.846 605.077 278.521 605.077 286.754Z" fill="#F0C243"/>
<path d="M649.8 103.477C649.8 111.71 642.929 118.385 634.454 118.385C625.978 118.385 619.107 111.71 619.107 103.477C619.107 95.2437 625.978 88.5693 634.454 88.5693C642.929 88.5693 649.8 95.2437 649.8 103.477Z" fill="#F0C243"/>
<path d="M649.8 149.077C649.8 157.31 642.929 163.985 634.454 163.985C625.978 163.985 619.107 157.31 619.107 149.077C619.107 140.844 625.978 134.169 634.454 134.169C642.929 134.169 649.8 140.844 649.8 149.077Z" fill="#F0C243"/>
<path d="M649.8 194.238C649.8 202.714 642.929 209.584 634.454 209.584C625.978 209.584 619.107 202.714 619.107 194.238C619.107 185.763 625.978 178.892 634.454 178.892C642.929 178.892 649.8 185.763 649.8 194.238Z" fill="#F0C243"/>
<path d="M649.8 240.715C649.8 248.706 642.929 255.185 634.454 255.185C625.978 255.185 619.107 248.706 619.107 240.715C619.107 232.724 625.978 226.246 634.454 226.246C642.929 226.246 649.8 232.724 649.8 240.715Z" fill="#F0C243"/>
<path d="M649.8 286.754C649.8 294.987 642.929 301.662 634.454 301.662C625.978 301.662 619.107 294.987 619.107 286.754C619.107 278.521 625.978 271.846 634.454 271.846C642.929 271.846 649.8 278.521 649.8 286.754Z" fill="#F0C243"/>
<path d="M693.646 103.477C693.646 111.71 686.776 118.385 678.3 118.385C669.825 118.385 662.954 111.71 662.954 103.477C662.954 95.2437 669.825 88.5693 678.3 88.5693C686.776 88.5693 693.646 95.2437 693.646 103.477Z" fill="#F0C243"/>
<path d="M693.646 149.077C693.646 157.31 686.776 163.985 678.3 163.985C669.825 163.985 662.954 157.31 662.954 149.077C662.954 140.844 669.825 134.169 678.3 134.169C686.776 134.169 693.646 140.844 693.646 149.077Z" fill="#F0C243"/>
<path d="M693.646 194.238C693.646 202.714 686.776 209.584 678.3 209.584C669.825 209.584 662.954 202.714 662.954 194.238C662.954 185.763 669.825 178.892 678.3 178.892C686.776 178.892 693.646 185.763 693.646 194.238Z" fill="#F0C243"/>
<path d="M693.646 240.715C693.646 248.706 686.776 255.185 678.3 255.185C669.825 255.185 662.954 248.706 662.954 240.715C662.954 232.724 669.825 226.246 678.3 226.246C686.776 226.246 693.646 232.724 693.646 240.715Z" fill="#F0C243"/>
<path d="M693.646 286.754C693.646 294.987 686.776 301.662 678.3 301.662C669.825 301.662 662.954 294.987 662.954 286.754C662.954 278.521 669.825 271.846 678.3 271.846C686.776 271.846 693.646 278.521 693.646 286.754Z" fill="#F0C243"/>
<path d="M734.861 103.477C734.861 111.71 728.187 118.385 719.954 118.385C711.72 118.385 705.046 111.71 705.046 103.477C705.046 95.2437 711.72 88.5693 719.954 88.5693C728.187 88.5693 734.861 95.2437 734.861 103.477Z" fill="#F0C243"/>
<path d="M734.861 149.077C734.861 157.31 728.187 163.985 719.954 163.985C711.72 163.985 705.046 157.31 705.046 149.077C705.046 140.844 711.72 134.169 719.954 134.169C728.187 134.169 734.861 140.844 734.861 149.077Z" fill="#F0C243"/>
<path d="M734.861 194.238C734.861 202.714 728.187 209.584 719.954 209.584C711.72 209.584 705.046 202.714 705.046 194.238C705.046 185.763 711.72 178.892 719.954 178.892C728.187 178.892 734.861 185.763 734.861 194.238Z" fill="#F0C243"/>
<path d="M734.861 240.715C734.861 248.706 728.187 255.185 719.954 255.185C711.72 255.185 705.046 248.706 705.046 240.715C705.046 232.724 711.72 226.246 719.954 226.246C728.187 226.246 734.861 232.724 734.861 240.715Z" fill="#F0C243"/>
<path d="M734.861 286.754C734.861 294.987 728.187 301.662 719.954 301.662C711.72 301.662 705.046 294.987 705.046 286.754C705.046 278.521 711.72 271.846 719.954 271.846C728.187 271.846 734.861 278.521 734.861 286.754Z" fill="#F0C243"/>
<path d="M778.708 103.477C778.708 111.71 772.034 118.385 763.8 118.385C755.567 118.385 748.893 111.71 748.893 103.477C748.893 95.2437 755.567 88.5693 763.8 88.5693C772.034 88.5693 778.708 95.2437 778.708 103.477Z" fill="#F0C243"/>
<path d="M778.708 149.077C778.708 157.31 772.034 163.985 763.8 163.985C755.567 163.985 748.893 157.31 748.893 149.077C748.893 140.844 755.567 134.169 763.8 134.169C772.034 134.169 778.708 140.844 778.708 149.077Z" fill="#F0C243"/>
<path d="M778.708 194.238C778.708 202.714 772.034 209.584 763.8 209.584C755.567 209.584 748.893 202.714 748.893 194.238C748.893 185.763 755.567 178.892 763.8 178.892C772.034 178.892 778.708 185.763 778.708 194.238Z" fill="#F0C243"/>
<path d="M778.708 240.715C778.708 248.706 772.034 255.185 763.8 255.185C755.567 255.185 748.893 248.706 748.893 240.715C748.893 232.724 755.567 226.246 763.8 226.246C772.034 226.246 778.708 232.724 778.708 240.715Z" fill="#F0C243"/>
<path d="M778.708 286.754C778.708 294.987 772.034 301.662 763.8 301.662C755.567 301.662 748.893 294.987 748.893 286.754C748.893 278.521 755.567 271.846 763.8 271.846C772.034 271.846 778.708 278.521 778.708 286.754Z" fill="#F0C243"/>
<path d="M681.369 249.046H678.044V235.465C676.958 235.946 675.544 236.187 673.803 236.187H669.969V233.7H673.531C675.069 233.7 676.2 233.522 676.924 233.165C677.671 232.809 678.044 232.256 678.044 231.508H681.369V249.046Z" fill="#BC271C"/>
<path d="M681.369 203.446H678.044V189.185C676.958 189.691 675.544 189.943 673.803 189.943H669.969V187.333H673.531C675.069 187.333 676.2 187.146 676.924 186.771C677.671 186.397 678.044 185.817 678.044 185.031H681.369V203.446Z" fill="#BC271C"/>
<path d="M636.646 249.046H634.088V235.465C633.253 235.946 632.166 236.187 630.826 236.187H627.877V233.7H630.617C631.8 233.7 632.67 233.522 633.227 233.165C633.801 232.809 634.088 232.256 634.088 231.508H636.646V249.046Z" fill="#BC271C"/>
<path d="M636.646 296.4H634.088V282.139C633.253 282.644 632.166 282.897 630.826 282.897H627.877V280.286H630.617C631.8 280.286 632.67 280.099 633.227 279.725C633.801 279.351 634.088 278.77 634.088 277.984H636.646V296.4Z" fill="#BC271C"/>
<path d="M681.369 296.4H678.044V282.139C676.958 282.644 675.544 282.897 673.803 282.897H669.969V280.286H673.531C675.069 280.286 676.2 280.099 676.924 279.725C677.671 279.351 678.044 278.77 678.044 277.984H681.369V296.4Z" fill="#BC271C"/>
<path d="M641.031 200.233V202.569H626.123V200.469L633.197 196.084C634.585 195.227 635.613 194.535 636.282 194.01C636.951 193.467 637.4 192.969 637.628 192.513C637.873 192.058 637.995 191.516 637.995 190.886V190.623C637.995 189.608 637.596 188.829 636.796 188.286C636.013 187.744 634.878 187.472 633.393 187.472C631.859 187.472 630.692 187.761 629.893 188.339C629.109 188.917 628.718 189.757 628.718 190.859V191.385H626.27V190.833C626.27 188.96 626.882 187.525 628.106 186.527C629.33 185.53 631.076 185.031 633.344 185.031C635.564 185.031 637.302 185.521 638.558 186.501C639.815 187.481 640.443 188.829 640.443 190.544V190.807C640.443 191.735 640.272 192.548 639.929 193.249C639.586 193.949 638.991 194.658 638.142 195.375C637.31 196.093 636.086 196.951 634.47 197.948L630.75 200.233H641.031Z" fill="#BC271C"/>
<path d="M597.185 246.71V249.046H582.277V246.946L589.352 242.561C590.739 241.704 591.767 241.012 592.436 240.487C593.105 239.944 593.554 239.446 593.782 238.991C594.027 238.535 594.15 237.993 594.15 237.363V237.1C594.15 236.085 593.75 235.306 592.95 234.763C592.167 234.221 591.033 233.95 589.548 233.95C588.014 233.95 586.847 234.238 586.047 234.816C585.264 235.394 584.872 236.234 584.872 237.336V237.862H582.424V237.31C582.424 235.437 583.036 234.002 584.26 233.004C585.484 232.007 587.23 231.508 589.499 231.508C591.718 231.508 593.456 231.998 594.713 232.978C595.969 233.958 596.598 235.306 596.598 237.021V237.284C596.598 238.212 596.426 239.026 596.083 239.726C595.741 240.426 595.145 241.135 594.297 241.852C593.464 242.57 592.24 243.428 590.625 244.425L586.904 246.71H597.185Z" fill="#BC271C"/>
<path d="M597.185 292.426V294.646H582.277V292.651L589.352 288.485C590.739 287.67 591.767 287.014 592.436 286.515C593.105 285.999 593.554 285.525 593.782 285.093C594.027 284.661 594.15 284.145 594.15 283.547V283.297C594.15 282.333 593.75 281.593 592.95 281.077C592.167 280.562 591.033 280.304 589.548 280.304C588.014 280.304 586.847 280.578 586.047 281.127C585.264 281.676 584.872 282.474 584.872 283.522V284.02H582.424V283.497C582.424 281.717 583.036 280.354 584.26 279.406C585.484 278.458 587.23 277.984 589.499 277.984C591.718 277.984 593.456 278.45 594.713 279.381C595.969 280.312 596.598 281.593 596.598 283.222V283.472C596.598 284.353 596.426 285.126 596.083 285.791C595.741 286.456 595.145 287.13 594.297 287.812C593.464 288.493 592.24 289.308 590.625 290.256L586.904 292.426H597.185Z" fill="#BC271C"/>
<path d="M686.662 154.442V156.662H670V154.666L677.907 150.501C679.457 149.686 680.606 149.029 681.354 148.53C682.102 148.015 682.603 147.541 682.859 147.109C683.132 146.676 683.269 146.161 683.269 145.562V145.313C683.269 144.348 682.822 143.608 681.928 143.093C681.053 142.577 679.785 142.32 678.126 142.32C676.411 142.32 675.107 142.594 674.213 143.143C673.338 143.691 672.9 144.49 672.9 145.537V146.036H670.164V145.512C670.164 143.733 670.848 142.37 672.216 141.422C673.584 140.474 675.536 140 678.071 140C680.551 140 682.494 140.466 683.898 141.397C685.303 142.328 686.005 143.608 686.005 145.238V145.487C686.005 146.369 685.813 147.142 685.43 147.807C685.047 148.472 684.382 149.146 683.433 149.827C682.503 150.509 681.135 151.324 679.329 152.272L675.171 154.442H686.662Z" fill="#BC271C"/>
<path d="M728.662 200.202V202.538H712V200.438L719.907 196.053C721.457 195.196 722.606 194.504 723.354 193.979C724.102 193.437 724.603 192.938 724.859 192.483C725.132 192.028 725.269 191.485 725.269 190.855V190.592C725.269 189.577 724.822 188.798 723.928 188.256C723.053 187.713 721.785 187.442 720.126 187.442C718.411 187.442 717.107 187.731 716.213 188.308C715.338 188.886 714.9 189.726 714.9 190.829V191.354H712.164V190.802C712.164 188.93 712.848 187.494 714.216 186.497C715.584 185.499 717.536 185 720.071 185C722.551 185 724.494 185.49 725.898 186.47C727.303 187.45 728.005 188.798 728.005 190.514V190.776C728.005 191.704 727.813 192.518 727.43 193.218C727.047 193.918 726.382 194.627 725.433 195.345C724.503 196.062 723.135 196.92 721.329 197.918L717.171 200.202H728.662Z" fill="#BC271C"/>
<path d="M729.6 246.71V249.046H712.938V246.946L720.845 242.561C722.396 241.704 723.545 241.012 724.292 240.487C725.04 239.944 725.542 239.446 725.797 238.991C726.071 238.535 726.208 237.993 726.208 237.363V237.1C726.208 236.085 725.761 235.306 724.867 234.763C723.991 234.221 722.724 233.95 721.064 233.95C719.35 233.95 718.045 234.238 717.152 234.816C716.276 235.394 715.839 236.234 715.839 237.336V237.862H713.103V237.31C713.103 235.437 713.787 234.002 715.155 233.004C716.522 232.007 718.474 231.508 721.009 231.508C723.49 231.508 725.432 231.998 726.837 232.978C728.241 233.958 728.943 235.306 728.943 237.021V237.284C728.943 238.212 728.752 239.026 728.369 239.726C727.986 240.426 727.32 241.135 726.372 241.852C725.441 242.57 724.074 243.428 722.268 244.425L718.109 246.71H729.6Z" fill="#BC271C"/>
<path d="M729.6 292.426V294.646H712.938V292.651L720.845 288.485C722.396 287.67 723.545 287.014 724.292 286.515C725.04 285.999 725.542 285.525 725.797 285.093C726.071 284.661 726.208 284.145 726.208 283.547V283.297C726.208 282.333 725.761 281.593 724.867 281.077C723.991 280.562 722.724 280.304 721.064 280.304C719.35 280.304 718.045 280.578 717.152 281.127C716.276 281.676 715.839 282.474 715.839 283.522V284.02H713.103V283.497C713.103 281.717 713.787 280.354 715.155 279.406C716.522 278.458 718.474 277.984 721.009 277.984C723.49 277.984 725.432 278.45 726.837 279.381C728.241 280.312 728.943 281.593 728.943 283.222V283.472C728.943 284.353 728.752 285.126 728.369 285.791C727.986 286.456 727.32 287.13 726.372 287.812C725.441 288.493 724.074 289.308 722.268 290.256L718.109 292.426H729.6Z" fill="#BC271C"/>
<path d="M712.938 476.608C712.938 534.483 666.021 581.4 608.146 581.4C550.271 581.4 503.354 534.483 503.354 476.608C503.354 418.733 550.271 371.815 608.146 371.815C666.021 371.815 712.938 418.733 712.938 476.608Z" fill="#F0C243"/>
<path d="M598.259 484.27C595.266 479.527 596.685 473.256 601.429 470.264C606.172 467.271 612.443 468.691 615.435 473.434C618.428 478.177 617.008 484.448 612.265 487.441C607.522 490.433 601.251 489.014 598.259 484.27Z" fill="black"/>
<path d="M569.458 546.465L570.015 536.775L659.857 400.052L566.3 535.116L558.666 539.933L558.006 553.689L569.458 546.465Z" fill="black"/>
<path d="M632.337 523.048C635.493 523.048 638.259 523.583 640.638 524.651C643.016 525.677 644.845 527.152 646.126 529.076C647.406 530.957 648.046 533.158 648.046 535.681V536.322C648.046 540.169 646.629 543.247 643.793 545.555C640.958 547.821 637.139 548.954 632.337 548.954H605.926V527.537H594.264L594.058 532.731C593.829 537.946 592.526 541.965 590.148 544.786C587.77 547.565 584.431 548.954 580.132 548.954H575.262V537.925H576.977C578.577 537.925 579.744 537.455 580.475 536.514C581.253 535.574 581.687 534.056 581.779 531.961L582.328 516.508H619.234V523.048H632.337ZM634.532 535.616C634.532 534.89 634.258 534.313 633.709 533.885C633.16 533.415 632.428 533.18 631.514 533.18H619.234V538.823H631.514C632.428 538.823 633.16 538.609 633.709 538.181C634.258 537.711 634.532 537.113 634.532 536.386V535.616Z" fill="#BC271C"/>
<path d="M983.031 476.608C983.031 534.483 936.114 581.4 878.239 581.4C820.363 581.4 773.446 534.483 773.446 476.608C773.446 418.733 820.363 371.815 878.239 371.815C936.114 371.815 983.031 418.733 983.031 476.608Z" fill="#F0C243"/>
<path d="M889.938 523.366C894.041 525.428 896.99 527.692 898.785 530.156C900.579 532.621 901.477 535.589 901.477 539.059V539.738C901.477 545.674 899.349 550.301 895.092 553.621C890.836 556.94 884.964 558.6 877.477 558.6C872.503 558.6 868.195 557.846 864.554 556.337C860.913 554.828 858.118 552.665 856.169 549.848C854.22 546.981 853.246 543.611 853.246 539.738V539.059C853.246 535.287 854.4 532.168 856.708 529.704C859.015 527.239 862.349 525.504 866.708 524.498L855.246 518.16V505.108H897.4V517.934H879.169L889.938 523.366ZM886.092 539.361C886.092 538.053 885.708 536.896 884.938 535.891C884.169 534.834 882.759 533.677 880.708 532.42H880.4C876.605 532.42 873.708 532.998 871.708 534.155C869.708 535.262 868.708 536.896 868.708 539.059V539.361C868.708 541.826 869.451 543.712 870.938 545.02C872.426 546.327 874.579 546.981 877.4 546.981C883.195 546.981 886.092 544.542 886.092 539.663V539.361Z" fill="#BC271C"/>
<path d="M869.617 467.159C873.97 463.622 880.365 464.283 883.902 468.635C887.439 472.988 886.778 479.383 882.426 482.92C878.073 486.457 871.678 485.796 868.141 481.444C864.604 477.091 865.265 470.696 869.617 467.159Z" fill="black"/>
<path d="M804.432 445.983L814.12 445.38L960.585 518.268L815.323 441.494L809.631 434.489L795.894 435.476L804.432 445.983Z" fill="black"/>
<path d="M828.692 180.646H1014.6V326.215H828.692V180.646Z" fill="#F0C243"/>
<path d="M1008.46 191.169C1008.46 193.591 1006.69 195.554 1004.52 195.554C1002.34 195.554 1000.57 193.591 1000.57 191.169C1000.57 188.748 1002.34 186.785 1004.52 186.785C1006.69 186.785 1008.46 188.748 1008.46 191.169Z" fill="black"/>
<path d="M1008.46 316.131C1008.46 318.794 1006.69 320.954 1004.52 320.954C1002.34 320.954 1000.57 318.794 1000.57 316.131C1000.57 313.467 1002.34 311.308 1004.52 311.308C1006.69 311.308 1008.46 313.467 1008.46 316.131Z" fill="black"/>
<path d="M841.846 191.169C841.846 193.591 840.08 195.554 837.9 195.554C835.721 195.554 833.954 193.591 833.954 191.169C833.954 188.748 835.721 186.785 837.9 186.785C840.08 186.785 841.846 188.748 841.846 191.169Z" fill="black"/>
<path d="M841.846 316.131C841.846 318.794 840.08 320.954 837.9 320.954C835.721 320.954 833.954 318.794 833.954 316.131C833.954 313.467 835.721 311.308 837.9 311.308C840.08 311.308 841.846 313.467 841.846 316.131Z" fill="black"/>
<path d="M164.797 197.308C154.356 197.308 145.166 195.568 137.227 192.088C129.288 188.524 123.119 183.475 118.718 176.94C114.403 170.406 112.246 162.853 112.246 154.282V153.645C112.246 145.074 114.403 137.521 118.718 130.987C123.119 124.452 129.288 119.403 137.227 115.839C145.166 112.274 154.356 110.492 164.797 110.492C175.41 110.492 184.687 112.274 192.625 115.839C200.564 119.403 206.691 124.452 211.005 130.987C215.32 137.436 217.477 144.989 217.477 153.645V154.282C217.477 162.938 215.32 170.533 211.005 177.068C206.691 183.517 200.564 188.524 192.625 192.088C184.687 195.568 175.41 197.308 164.797 197.308ZM164.797 173.503C173.771 173.503 180.372 171.976 184.6 168.921C188.829 165.781 190.943 161.028 190.943 154.664V153.391C190.943 140.661 182.227 134.296 164.797 134.296C156.254 134.296 149.782 135.909 145.381 139.134C140.981 142.358 138.78 147.111 138.78 153.391V154.664C138.78 161.028 140.938 165.781 145.252 168.921C149.567 171.976 156.081 173.503 164.797 173.503Z" fill="#BC271C"/>
<path d="M99.0928 449.118H104.108L112.706 410.799L125.244 502.477L139.574 365.677L148.888 459.861L154.62 431.928L160.71 463.442L172.891 431.928M295.409 441.239L316.546 389.312L333.741 499.97L341.622 449.118L352.728 478.841L368.491 381.076L373.148 488.51L380.671 449.118H384.97" stroke="black" stroke-width="4"/>
<path d="M317.446 464.648V502.477H296.557V483.704H163.984V391.108H184.873V464.648H223.169V391.108H244.197V464.648H282.492V391.108H303.381V464.648H317.446Z" fill="#F0C243"/>
<path d="M279.304 139.024C281.368 140.128 282.928 141.568 283.984 143.344C285.04 145.072 285.568 147.064 285.568 149.32V150.04C285.568 154.12 283.96 157.312 280.744 159.616C277.528 161.872 273.016 163 267.208 163H236.608V115.768H265.84C271.696 115.768 276.208 116.896 279.376 119.152C282.544 121.408 284.128 124.6 284.128 128.728V129.448C284.128 133.576 282.52 136.768 279.304 139.024ZM251.08 128.008V133.768H265.84C268.432 133.768 269.728 132.928 269.728 131.248V130.528C269.728 128.848 268.432 128.008 265.84 128.008H251.08ZM270.808 147.376C270.808 145.6 269.512 144.712 266.92 144.712H251.08V150.76H266.92C269.512 150.76 270.808 149.872 270.808 148.096V147.376ZM324.387 163.936C318.579 163.936 313.467 162.952 309.051 160.984C304.635 158.968 301.203 156.112 298.755 152.416C296.355 148.72 295.155 144.448 295.155 139.6V139.24C295.155 134.392 296.355 130.12 298.755 126.424C301.203 122.728 304.635 119.872 309.051 117.856C313.467 115.84 318.579 114.832 324.387 114.832C330.291 114.832 335.451 115.84 339.867 117.856C344.283 119.872 347.691 122.728 350.091 126.424C352.491 130.072 353.691 134.344 353.691 139.24V139.6C353.691 144.496 352.491 148.792 350.091 152.488C347.691 156.136 344.283 158.968 339.867 160.984C335.451 162.952 330.291 163.936 324.387 163.936ZM324.387 150.472C329.379 150.472 333.051 149.608 335.403 147.88C337.755 146.104 338.931 143.416 338.931 139.816V139.096C338.931 131.896 334.083 128.296 324.387 128.296C319.635 128.296 316.035 129.208 313.587 131.032C311.139 132.856 309.915 135.544 309.915 139.096V139.816C309.915 143.416 311.115 146.104 313.515 147.88C315.915 149.608 319.539 150.472 324.387 150.472ZM379.392 115.768V150.04H408.696V163H364.92V115.768H379.392ZM443.582 115.768C452.75 115.768 459.638 117.736 464.246 121.672C468.902 125.56 471.23 131.392 471.23 139.168V139.672C471.23 155.224 462.014 163 443.582 163H418.67V115.768H443.582ZM443.582 150.04C448.142 150.04 451.43 149.248 453.446 147.664C455.462 146.08 456.47 143.488 456.47 139.888V139.024C456.47 135.472 455.414 132.88 453.302 131.248C451.238 129.568 447.974 128.728 443.51 128.728H433.142V150.04H443.582Z" fill="#BC271C"/>
<path d="M879.792 245.384C877.552 245.384 875.589 245.011 873.904 244.264C872.219 243.496 870.917 242.44 870 241.096C869.104 239.731 868.656 238.163 868.656 236.392C868.656 235.539 868.763 234.685 868.976 233.832L869.104 233.288C869.765 230.216 871.184 227.837 873.36 226.152C875.557 224.467 878.341 223.624 881.712 223.624C883.781 223.624 885.659 223.976 887.344 224.68C889.029 225.384 890.352 226.344 891.312 227.56C892.272 228.755 892.752 230.077 892.752 231.528C892.752 231.976 892.709 232.381 892.624 232.744L892.592 233.032H889.36L889.392 232.744C889.456 232.445 889.488 232.157 889.488 231.88C889.488 230.877 889.147 229.971 888.464 229.16C887.803 228.349 886.875 227.709 885.68 227.24C884.485 226.771 883.141 226.536 881.648 226.536C879.109 226.536 877.019 227.155 875.376 228.392C873.755 229.629 872.688 231.411 872.176 233.736L872.016 234.344C871.867 234.963 871.792 235.603 871.792 236.264C871.792 238.184 872.507 239.699 873.936 240.808C875.365 241.917 877.349 242.472 879.888 242.472C881.403 242.472 882.768 242.259 883.984 241.832C885.221 241.384 886.224 240.776 886.992 240.008C887.781 239.219 888.272 238.312 888.464 237.288L888.528 237H891.856L891.792 237.288C891.472 238.909 890.768 240.339 889.68 241.576C888.592 242.792 887.195 243.731 885.488 244.392C883.803 245.053 881.904 245.384 879.792 245.384ZM919.601 224.008L919.025 226.792H904.337L902.929 233.096H916.945L916.337 235.88H902.321L900.881 242.216H915.537L914.929 245H897.041L901.713 224.008H919.601ZM939.238 224.008C940.56 224.008 941.723 224.243 942.726 224.712C943.728 225.16 944.507 225.789 945.062 226.6C945.616 227.411 945.894 228.339 945.894 229.384C945.894 229.768 945.84 230.227 945.734 230.76L945.638 231.144C945.254 232.957 944.358 234.355 942.95 235.336C941.563 236.296 939.643 236.776 937.19 236.776H927.174L925.318 245H922.086L926.758 224.008H939.238ZM937.446 233.992C938.875 233.992 940.016 233.725 940.87 233.192C941.723 232.637 942.256 231.837 942.47 230.792L942.566 230.408C942.63 230.109 942.662 229.843 942.662 229.608C942.662 228.755 942.331 228.072 941.67 227.56C941.008 227.048 940.08 226.792 938.886 226.792H929.382L927.782 233.992H937.446ZM950.448 226.792L951.056 224.008H972.368L971.792 226.792H962.832L958.768 245H955.536L959.6 226.792H950.448ZM970.895 245.384C970.383 245.384 969.935 245.224 969.551 244.904C969.188 244.584 969.007 244.157 969.007 243.624C969.007 242.984 969.199 242.483 969.583 242.12C969.988 241.736 970.479 241.544 971.055 241.544C971.588 241.544 972.036 241.704 972.399 242.024C972.762 242.344 972.943 242.781 972.943 243.336C972.943 243.955 972.74 244.456 972.335 244.84C971.951 245.203 971.471 245.384 970.895 245.384Z" fill="#BC271C"/>
<path d="M875.144 260.624C877 260.624 878.611 260.88 879.976 261.392C881.363 261.904 882.429 262.629 883.176 263.568C883.923 264.507 884.296 265.595 884.296 266.832C884.296 267.173 884.264 267.525 884.2 267.888L884.136 268.24C883.923 269.627 883.229 270.885 882.056 272.016C880.904 273.125 879.005 274.331 876.36 275.632L871.4 278.064H882.536L881.672 282H861.448L862.312 278.224L874.184 272.304C875.592 271.6 876.637 271.035 877.32 270.608C878.024 270.16 878.515 269.744 878.792 269.36C879.091 268.976 879.283 268.517 879.368 267.984L879.432 267.696C879.453 267.589 879.464 267.451 879.464 267.28C879.464 266.469 879.08 265.84 878.312 265.392C877.544 264.944 876.445 264.72 875.016 264.72C873.437 264.72 872.179 265.008 871.24 265.584C870.301 266.139 869.715 266.949 869.48 268.016L869.32 268.656H864.52L864.68 267.984C865.213 265.509 866.344 263.664 868.072 262.448C869.8 261.232 872.157 260.624 875.144 260.624ZM912.435 277.744H907.699L906.739 282H901.875L902.835 277.744H887.731L888.659 273.488C890.601 271.248 892.233 269.147 893.555 267.184C894.899 265.2 896.094 263.141 897.139 261.008H902.291L902.131 261.744C900.19 265.605 897.598 269.52 894.355 273.488H903.763L905.747 264.656H910.611L908.627 273.488H913.363L912.435 277.744ZM928.761 282.384C926.67 282.384 924.825 282.032 923.225 281.328C921.625 280.603 920.387 279.611 919.513 278.352C918.638 277.072 918.201 275.621 918.201 274C918.201 273.36 918.286 272.645 918.457 271.856L919.001 269.424C919.363 267.611 920.078 266.043 921.145 264.72C922.233 263.397 923.609 262.384 925.273 261.68C926.937 260.976 928.803 260.624 930.873 260.624C932.963 260.624 934.798 260.987 936.377 261.712C937.977 262.416 939.214 263.408 940.089 264.688C940.963 265.968 941.401 267.429 941.401 269.072C941.401 269.691 941.315 270.395 941.145 271.184L940.601 273.616C940.046 276.347 938.713 278.491 936.601 280.048C934.51 281.605 931.897 282.384 928.761 282.384ZM928.889 278.032C930.83 278.032 932.387 277.627 933.561 276.816C934.755 275.984 935.534 274.779 935.897 273.2L936.473 270.672C936.579 270.181 936.633 269.755 936.633 269.392C936.633 268.027 936.099 266.949 935.033 266.16C933.987 265.371 932.537 264.976 930.681 264.976C928.761 264.976 927.203 265.403 926.009 266.256C924.814 267.088 924.035 268.293 923.673 269.872L923.097 272.4C922.99 272.933 922.937 273.381 922.937 273.744C922.937 275.088 923.459 276.144 924.505 276.912C925.55 277.659 927.011 278.032 928.889 278.032ZM955.397 282H950.533L953.861 267.12C952.901 267.419 951.866 267.568 950.757 267.568H947.205L948.133 263.216H951.429C952.581 263.216 953.455 263.045 954.053 262.704C954.65 262.341 955.034 261.776 955.205 261.008H960.069L955.397 282ZM981.431 282H976.727L979.447 269.936H971.927L970.487 275.152C969.825 277.563 968.94 279.312 967.831 280.4C966.743 281.467 965.228 282 963.287 282H961.175L962.103 277.872H963.031C963.905 277.872 964.577 277.616 965.047 277.104C965.537 276.571 965.953 275.664 966.295 274.384L968.503 265.968H985.015L981.431 282Z" fill="#BC271C"/>
<path d="M810.272 604.704L810.584 603.168H824.576L824.24 604.704H818.264L815.96 615H814.136L816.464 604.704H810.272ZM832.373 615.264C831.061 615.264 829.909 615.04 828.917 614.592C827.925 614.144 827.157 613.528 826.613 612.744C826.085 611.944 825.821 611.032 825.821 610.008C825.821 609.608 825.869 609.192 825.965 608.76L826.061 608.304C826.397 606.576 827.181 605.248 828.413 604.32C829.645 603.376 831.245 602.904 833.213 602.904C834.509 602.904 835.645 603.128 836.621 603.576C837.613 604.024 838.373 604.648 838.901 605.448C839.445 606.248 839.717 607.16 839.717 608.184C839.717 608.6 839.669 609.024 839.573 609.456L839.477 609.912C839.157 611.608 838.381 612.928 837.149 613.872C835.917 614.8 834.325 615.264 832.373 615.264ZM832.373 613.68C833.845 613.68 835.037 613.336 835.949 612.648C836.861 611.96 837.437 611 837.677 609.768L837.773 609.312C837.853 608.912 837.893 608.568 837.893 608.28C837.893 607.144 837.469 606.232 836.621 605.544C835.773 604.84 834.629 604.488 833.189 604.488C831.685 604.488 830.477 604.832 829.565 605.52C828.669 606.192 828.101 607.168 827.861 608.448L827.765 608.88C827.685 609.28 827.645 609.616 827.645 609.888C827.645 611.024 828.069 611.944 828.917 612.648C829.781 613.336 830.933 613.68 832.373 613.68ZM857.101 603.168L854.485 615H852.685L853.621 610.752C851.941 611.072 850.381 611.232 848.941 611.232C847.325 611.232 846.077 610.904 845.197 610.248C844.333 609.576 843.901 608.648 843.901 607.464C843.901 607.096 843.933 606.752 843.997 606.432L844.621 603.168H846.421L845.773 606.36C845.709 606.744 845.677 607.016 845.677 607.176C845.677 607.992 845.973 608.616 846.565 609.048C847.173 609.464 848.061 609.672 849.229 609.672C850.685 609.672 852.269 609.504 853.981 609.168L855.301 603.168H857.101ZM864.631 603.168L863.503 608.304H872.815L873.967 603.168H875.767L873.127 615H871.327L872.479 609.84H863.167L862.015 615H860.215L862.831 603.168H864.631ZM885.865 615.264C884.553 615.264 883.401 615.04 882.409 614.592C881.417 614.144 880.649 613.528 880.105 612.744C879.577 611.944 879.313 611.032 879.313 610.008C879.313 609.608 879.361 609.192 879.457 608.76L879.553 608.304C879.889 606.576 880.673 605.248 881.905 604.32C883.137 603.376 884.737 602.904 886.705 602.904C888.001 602.904 889.137 603.128 890.113 603.576C891.105 604.024 891.865 604.648 892.393 605.448C892.937 606.248 893.209 607.16 893.209 608.184C893.209 608.6 893.161 609.024 893.065 609.456L892.969 609.912C892.649 611.608 891.873 612.928 890.641 613.872C889.409 614.8 887.817 615.264 885.865 615.264ZM885.865 613.68C887.337 613.68 888.529 613.336 889.441 612.648C890.353 611.96 890.929 611 891.169 609.768L891.265 609.312C891.345 608.912 891.385 608.568 891.385 608.28C891.385 607.144 890.961 606.232 890.113 605.544C889.265 604.84 888.121 604.488 886.681 604.488C885.177 604.488 883.969 604.832 883.057 605.52C882.161 606.192 881.593 607.168 881.353 608.448L881.257 608.88C881.177 609.28 881.137 609.616 881.137 609.888C881.137 611.024 881.561 611.944 882.409 612.648C883.273 613.336 884.425 613.68 885.865 613.68ZM903.759 615.264C902.447 615.264 901.295 615.04 900.303 614.592C899.311 614.144 898.543 613.528 897.999 612.744C897.455 611.944 897.183 611.032 897.183 610.008C897.183 609.64 897.239 609.192 897.351 608.664L897.471 608.208C897.807 606.512 898.591 605.208 899.823 604.296C901.055 603.368 902.639 602.904 904.575 602.904C905.775 602.904 906.863 603.104 907.839 603.504C908.815 603.904 909.575 604.456 910.119 605.16C910.679 605.848 910.959 606.616 910.959 607.464C910.959 607.688 910.935 607.92 910.887 608.16L910.863 608.28H909.063L909.087 608.16C909.119 607.904 909.135 607.728 909.135 607.632C909.135 607.04 908.935 606.504 908.535 606.024C908.151 605.544 907.607 605.168 906.903 604.896C906.215 604.624 905.431 604.488 904.551 604.488C903.095 604.488 901.903 604.832 900.975 605.52C900.047 606.208 899.455 607.192 899.199 608.472L899.103 608.928C899.023 609.328 898.983 609.664 898.983 609.936C898.983 611.072 899.415 611.984 900.279 612.672C901.143 613.344 902.311 613.68 903.783 613.68C905.079 613.68 906.159 613.408 907.023 612.864C907.887 612.304 908.407 611.552 908.583 610.608L908.607 610.488H910.479L910.455 610.608C910.183 612.048 909.447 613.184 908.247 614.016C907.063 614.848 905.567 615.264 903.759 615.264ZM914.256 604.704L914.568 603.168H928.56L928.224 604.704H922.248L919.944 615H918.12L920.448 604.704H914.256ZM939.874 607.032C941.202 607.032 942.234 607.336 942.97 607.944C943.722 608.536 944.098 609.36 944.098 610.416C944.098 610.576 944.066 610.864 944.002 611.28L943.954 611.568C943.762 612.672 943.258 613.52 942.442 614.112C941.626 614.704 940.538 615 939.178 615H929.842L932.458 603.168H934.258L933.394 607.032H939.874ZM942.25 611.088C942.298 610.864 942.322 610.664 942.322 610.488C942.322 609.88 942.09 609.408 941.626 609.072C941.178 608.736 940.522 608.568 939.658 608.568H933.058L931.978 613.464H939.202C940.05 613.464 940.722 613.288 941.218 612.936C941.73 612.584 942.05 612.072 942.178 611.4L942.25 611.088Z" fill="#F0C243"/>
<path d="M554.152 603.168L551.512 615H549.712L552.016 604.704H542.944L540.64 615H538.84L541.456 603.168H554.152ZM566.152 602.904C567.352 602.904 568.408 603.128 569.32 603.576C570.248 604.008 570.96 604.616 571.456 605.4C571.968 606.184 572.224 607.08 572.224 608.088C572.224 608.424 572.184 608.816 572.104 609.264L571.984 609.744C571.664 611.488 570.872 612.848 569.608 613.824C568.344 614.784 566.712 615.264 564.712 615.264C563.624 615.264 562.624 615.072 561.712 614.688C560.816 614.288 560.088 613.736 559.528 613.032L558.184 619.08H556.384L559.912 603.168H561.52L561.28 604.752C562.656 603.52 564.28 602.904 566.152 602.904ZM570.328 609.12C570.392 608.848 570.424 608.544 570.424 608.208C570.424 607.088 570.016 606.192 569.2 605.52C568.4 604.832 567.312 604.488 565.936 604.488C564.928 604.488 564 604.68 563.152 605.064C562.304 605.432 561.56 605.976 560.92 606.696L559.912 611.232C560.28 611.968 560.896 612.56 561.76 613.008C562.64 613.456 563.616 613.68 564.688 613.68C566.208 613.68 567.44 613.328 568.384 612.624C569.344 611.92 569.944 610.92 570.184 609.624L570.328 609.12ZM582.735 615.264C581.423 615.264 580.271 615.04 579.279 614.592C578.287 614.144 577.519 613.528 576.975 612.744C576.447 611.944 576.183 611.032 576.183 610.008C576.183 609.608 576.231 609.192 576.327 608.76L576.423 608.304C576.759 606.576 577.543 605.248 578.775 604.32C580.007 603.376 581.607 602.904 583.575 602.904C584.871 602.904 586.007 603.128 586.983 603.576C587.975 604.024 588.735 604.648 589.263 605.448C589.807 606.248 590.079 607.16 590.079 608.184C590.079 608.6 590.031 609.024 589.935 609.456L589.839 609.912C589.519 611.608 588.743 612.928 587.511 613.872C586.279 614.8 584.687 615.264 582.735 615.264ZM582.735 613.68C584.207 613.68 585.399 613.336 586.311 612.648C587.223 611.96 587.799 611 588.039 609.768L588.135 609.312C588.215 608.912 588.255 608.568 588.255 608.28C588.255 607.144 587.831 606.232 586.983 605.544C586.135 604.84 584.991 604.488 583.551 604.488C582.047 604.488 580.839 604.832 579.927 605.52C579.031 606.192 578.463 607.168 578.223 608.448L578.127 608.88C578.047 609.28 578.007 609.616 578.007 609.888C578.007 611.024 578.431 611.944 579.279 612.648C580.143 613.336 581.295 613.68 582.735 613.68ZM600.629 615.264C599.317 615.264 598.165 615.04 597.173 614.592C596.181 614.144 595.413 613.528 594.869 612.744C594.325 611.944 594.053 611.032 594.053 610.008C594.053 609.64 594.109 609.192 594.221 608.664L594.341 608.208C594.677 606.512 595.461 605.208 596.693 604.296C597.925 603.368 599.509 602.904 601.445 602.904C602.645 602.904 603.733 603.104 604.709 603.504C605.685 603.904 606.445 604.456 606.989 605.16C607.549 605.848 607.829 606.616 607.829 607.464C607.829 607.688 607.805 607.92 607.757 608.16L607.733 608.28H605.933L605.957 608.16C605.989 607.904 606.005 607.728 606.005 607.632C606.005 607.04 605.805 606.504 605.405 606.024C605.021 605.544 604.477 605.168 603.773 604.896C603.085 604.624 602.301 604.488 601.421 604.488C599.965 604.488 598.773 604.832 597.845 605.52C596.917 606.208 596.325 607.192 596.069 608.472L595.973 608.928C595.893 609.328 595.853 609.664 595.853 609.936C595.853 611.072 596.285 611.984 597.149 612.672C598.013 613.344 599.181 613.68 600.653 613.68C601.949 613.68 603.029 613.408 603.893 612.864C604.757 612.304 605.277 611.552 605.453 610.608L605.477 610.488H607.349L607.325 610.608C607.053 612.048 606.317 613.184 605.117 614.016C603.933 614.848 602.437 615.264 600.629 615.264ZM611.126 604.704L611.438 603.168H625.43L625.094 604.704H619.118L616.814 615H614.99L617.318 604.704H611.126ZM633.227 615.264C631.915 615.264 630.763 615.04 629.771 614.592C628.779 614.144 628.011 613.528 627.467 612.744C626.939 611.944 626.675 611.032 626.675 610.008C626.675 609.608 626.723 609.192 626.819 608.76L626.915 608.304C627.251 606.576 628.035 605.248 629.267 604.32C630.499 603.376 632.099 602.904 634.067 602.904C635.363 602.904 636.499 603.128 637.475 603.576C638.467 604.024 639.227 604.648 639.755 605.448C640.299 606.248 640.571 607.16 640.571 608.184C640.571 608.6 640.523 609.024 640.427 609.456L640.331 609.912C640.011 611.608 639.235 612.928 638.003 613.872C636.771 614.8 635.179 615.264 633.227 615.264ZM633.227 613.68C634.699 613.68 635.891 613.336 636.803 612.648C637.715 611.96 638.291 611 638.531 609.768L638.627 609.312C638.707 608.912 638.747 608.568 638.747 608.28C638.747 607.144 638.323 606.232 637.475 605.544C636.627 604.84 635.483 604.488 634.043 604.488C632.539 604.488 631.331 604.832 630.419 605.52C629.523 606.192 628.955 607.168 628.715 608.448L628.619 608.88C628.539 609.28 628.499 609.616 628.499 609.888C628.499 611.024 628.923 611.944 629.771 612.648C630.635 613.336 631.787 613.68 633.227 613.68ZM644.099 604.704L644.411 603.168H658.404L658.068 604.704H652.091L649.787 615H647.963L650.291 604.704H644.099ZM674.529 613.464L674.193 615H672.945C672.209 615 671.609 614.84 671.145 614.52C670.681 614.184 670.401 613.736 670.305 613.176C668.769 614.568 666.777 615.264 664.329 615.264C662.809 615.264 661.625 615.008 660.777 614.496C659.945 613.968 659.529 613.24 659.529 612.312C659.529 612.184 659.561 611.944 659.625 611.592C659.833 610.648 660.345 609.952 661.161 609.504C661.977 609.04 663.097 608.736 664.521 608.592L671.241 607.92C671.289 607.68 671.313 607.44 671.313 607.2C671.313 606.352 670.953 605.696 670.233 605.232C669.529 604.768 668.521 604.536 667.209 604.536C665.881 604.536 664.777 604.792 663.897 605.304C663.017 605.8 662.497 606.488 662.337 607.368L662.313 607.512H660.513L660.537 607.368C660.793 605.992 661.529 604.904 662.745 604.104C663.961 603.304 665.489 602.904 667.329 602.904C669.121 602.904 670.529 603.28 671.553 604.032C672.593 604.784 673.113 605.792 673.113 607.056C673.113 607.36 673.073 607.712 672.993 608.112L672.153 611.952C672.121 612.144 672.105 612.28 672.105 612.36C672.105 612.712 672.225 612.984 672.465 613.176C672.705 613.368 673.049 613.464 673.497 613.464H674.529ZM664.377 613.728C665.689 613.728 666.881 613.512 667.953 613.08C669.025 612.632 669.889 612.008 670.545 611.208L670.953 609.36L664.497 610.008C663.473 610.12 662.705 610.32 662.193 610.608C661.697 610.88 661.401 611.28 661.305 611.808C661.289 611.888 661.281 612 661.281 612.144C661.281 612.656 661.537 613.048 662.049 613.32C662.577 613.592 663.353 613.728 664.377 613.728Z" fill="#F0C243"/>
</svg>
