<svg width="1281" height="516" viewBox="0 0 1281 516" fill="none" xmlns="http://www.w3.org/2000/svg">
<path fill-rule="evenodd" clip-rule="evenodd" d="M540.334 123.429L540.334 102.767L542.497 102.767L542.497 123.429L540.334 123.429ZM540.334 206.075L540.334 164.752L542.497 164.752L542.497 206.075L540.334 206.075ZM540.334 288.722L540.334 247.399L542.497 247.399L542.497 288.722L540.334 288.722ZM540.334 371.368L540.334 330.045L542.497 330.045L542.497 371.368L540.334 371.368ZM540.334 454.015L540.334 412.692L542.497 412.692L542.497 454.015L540.334 454.015ZM540.334 516L540.334 495.338L542.497 495.338L542.497 516L540.334 516Z" fill="#BC271C"/>
<path fill-rule="evenodd" clip-rule="evenodd" d="M1262.95 128.567L1262.95 108.176L1265.11 108.176L1265.11 128.567L1262.95 128.567ZM1262.95 210.132L1262.95 169.35L1265.11 169.35L1265.11 210.132L1262.95 210.132ZM1262.95 291.697L1262.95 250.915L1265.11 250.915L1265.11 291.697L1262.95 291.697ZM1262.95 373.262L1262.95 332.479L1265.11 332.479L1265.11 373.262L1262.95 373.262ZM1262.95 454.827L1262.95 414.044L1265.11 414.044L1265.11 454.827L1262.95 454.827ZM1262.95 516L1262.95 495.609L1265.11 495.609L1265.11 516L1262.95 516Z" fill="#BC271C"/>
<path d="M483 0H1281V57.8742V115.748H483V0Z" fill="#BC271C"/>
<path fill-rule="evenodd" clip-rule="evenodd" d="M494.9 25.9623L494.9 -4.7285e-08L495.981 0L495.981 25.9623L494.9 25.9623Z" fill="black"/>
<path fill-rule="evenodd" clip-rule="evenodd" d="M494.9 89.7863L494.9 115.749L495.981 115.749L495.981 89.7863L494.9 89.7863Z" fill="black"/>
<path fill-rule="evenodd" clip-rule="evenodd" d="M517.616 25.9623L517.616 -4.7285e-08L518.698 0L518.698 25.9623L517.616 25.9623Z" fill="black"/>
<path fill-rule="evenodd" clip-rule="evenodd" d="M517.616 89.7863L517.616 115.749L518.698 115.749L518.698 89.7863L517.616 89.7863Z" fill="black"/>
<path fill-rule="evenodd" clip-rule="evenodd" d="M528.434 25.9623L528.434 -4.7285e-08L529.516 0L529.516 25.9623L528.434 25.9623Z" fill="black"/>
<path fill-rule="evenodd" clip-rule="evenodd" d="M528.434 89.7863L528.434 115.749L529.516 115.749L529.516 89.7863L528.434 89.7863Z" fill="black"/>
<path fill-rule="evenodd" clip-rule="evenodd" d="M539.252 37.8616L539.252 -4.7285e-08L540.334 0L540.334 37.8616L539.252 37.8616Z" fill="black"/>
<path fill-rule="evenodd" clip-rule="evenodd" d="M539.252 77.8869L539.252 115.749L540.334 115.749L540.334 77.8869L539.252 77.8869Z" fill="black"/>
<path fill-rule="evenodd" clip-rule="evenodd" d="M561.969 25.9623L561.969 -4.7285e-08L563.051 0L563.051 25.9623L561.969 25.9623Z" fill="black"/>
<path fill-rule="evenodd" clip-rule="evenodd" d="M561.969 89.7863L561.969 115.749L563.051 115.749L563.051 89.7863L561.969 89.7863Z" fill="black"/>
<path fill-rule="evenodd" clip-rule="evenodd" d="M572.786 25.9623L572.786 -4.7285e-08L573.868 0L573.868 25.9623L572.786 25.9623Z" fill="black"/>
<path fill-rule="evenodd" clip-rule="evenodd" d="M572.786 89.7863L572.786 115.749L573.868 115.749L573.868 89.7863L572.786 89.7863Z" fill="black"/>
<path fill-rule="evenodd" clip-rule="evenodd" d="M583.604 25.9623L583.604 -4.7285e-08L584.686 0L584.686 25.9623L583.604 25.9623Z" fill="black"/>
<path fill-rule="evenodd" clip-rule="evenodd" d="M583.604 89.7863L583.604 115.749L584.686 115.749L584.686 89.7863L583.604 89.7863Z" fill="black"/>
<path fill-rule="evenodd" clip-rule="evenodd" d="M595.503 37.8616L595.503 -4.7285e-08L596.585 0L596.585 37.8616L595.503 37.8616Z" fill="black"/>
<path fill-rule="evenodd" clip-rule="evenodd" d="M595.503 77.8869L595.503 115.749L596.585 115.749L596.585 77.8869L595.503 77.8869Z" fill="black"/>
<path fill-rule="evenodd" clip-rule="evenodd" d="M606.322 25.9623L606.322 -4.7285e-08L607.403 0L607.403 25.9623L606.322 25.9623Z" fill="black"/>
<path fill-rule="evenodd" clip-rule="evenodd" d="M606.322 89.7863L606.322 115.749L607.403 115.749L607.403 89.7863L606.322 89.7863Z" fill="black"/>
<path fill-rule="evenodd" clip-rule="evenodd" d="M617.139 25.9623L617.139 -4.7285e-08L618.221 0L618.221 25.9623L617.139 25.9623Z" fill="black"/>
<path fill-rule="evenodd" clip-rule="evenodd" d="M617.139 89.7863L617.139 115.749L618.221 115.749L618.221 89.7863L617.139 89.7863Z" fill="black"/>
<path fill-rule="evenodd" clip-rule="evenodd" d="M639.856 25.9623L639.856 -4.7285e-08L640.938 0L640.937 25.9623L639.856 25.9623Z" fill="black"/>
<path fill-rule="evenodd" clip-rule="evenodd" d="M639.856 89.7863L639.856 115.749L640.938 115.749L640.937 89.7863L639.856 89.7863Z" fill="black"/>
<path fill-rule="evenodd" clip-rule="evenodd" d="M650.673 37.8616L650.673 -4.7285e-08L651.755 0L651.755 37.8616L650.673 37.8616Z" fill="black"/>
<path fill-rule="evenodd" clip-rule="evenodd" d="M650.673 77.8869L650.673 115.749L651.755 115.749L651.755 77.8869L650.673 77.8869Z" fill="black"/>
<path fill-rule="evenodd" clip-rule="evenodd" d="M661.491 25.9623L661.491 -4.7285e-08L662.572 0L662.572 25.9623L661.491 25.9623Z" fill="black"/>
<path fill-rule="evenodd" clip-rule="evenodd" d="M661.491 89.7863L661.491 115.749L662.572 115.749L662.572 89.7863L661.491 89.7863Z" fill="black"/>
<path fill-rule="evenodd" clip-rule="evenodd" d="M684.208 25.9623L684.208 -4.7285e-08L685.29 0L685.29 25.9623L684.208 25.9623Z" fill="black"/>
<path fill-rule="evenodd" clip-rule="evenodd" d="M684.208 89.7863L684.208 115.749L685.29 115.749L685.29 89.7863L684.208 89.7863Z" fill="black"/>
<path fill-rule="evenodd" clip-rule="evenodd" d="M695.026 25.9623L695.026 -4.7285e-08L696.107 0L696.107 25.9623L695.026 25.9623Z" fill="black"/>
<path fill-rule="evenodd" clip-rule="evenodd" d="M695.026 89.7863L695.026 115.749L696.107 115.749L696.107 89.7863L695.026 89.7863Z" fill="black"/>
<path fill-rule="evenodd" clip-rule="evenodd" d="M717.742 25.9623L717.742 -4.7285e-08L718.824 0L718.824 25.9623L717.742 25.9623Z" fill="black"/>
<path fill-rule="evenodd" clip-rule="evenodd" d="M717.742 89.7863L717.742 115.749L718.824 115.749L718.824 89.7863L717.742 89.7863Z" fill="black"/>
<path fill-rule="evenodd" clip-rule="evenodd" d="M728.56 25.9623L728.56 -4.7285e-08L729.642 0L729.642 25.9623L728.56 25.9623Z" fill="black"/>
<path fill-rule="evenodd" clip-rule="evenodd" d="M728.56 89.7863L728.56 115.749L729.642 115.749L729.642 89.7863L728.56 89.7863Z" fill="black"/>
<path fill-rule="evenodd" clip-rule="evenodd" d="M739.378 25.9623L739.378 -4.7285e-08L740.46 0L740.46 25.9623L739.378 25.9623Z" fill="black"/>
<path fill-rule="evenodd" clip-rule="evenodd" d="M739.378 89.7863L739.378 115.749L740.46 115.749L740.46 89.7863L739.378 89.7863Z" fill="black"/>
<path fill-rule="evenodd" clip-rule="evenodd" d="M762.095 37.8616L762.095 -4.7285e-08L763.177 0L763.177 37.8616L762.095 37.8616Z" fill="black"/>
<path fill-rule="evenodd" clip-rule="evenodd" d="M762.095 77.8869L762.095 115.749L763.177 115.749L763.177 77.8869L762.095 77.8869Z" fill="black"/>
<path fill-rule="evenodd" clip-rule="evenodd" d="M772.912 25.9623L772.912 -4.7285e-08L773.994 0L773.994 25.9623L772.912 25.9623Z" fill="black"/>
<path fill-rule="evenodd" clip-rule="evenodd" d="M772.912 89.7863L772.912 115.749L773.994 115.749L773.994 89.7863L772.912 89.7863Z" fill="black"/>
<path fill-rule="evenodd" clip-rule="evenodd" d="M783.73 25.9623L783.73 -4.7285e-08L784.812 0L784.812 25.9623L783.73 25.9623Z" fill="black"/>
<path fill-rule="evenodd" clip-rule="evenodd" d="M783.73 89.7863L783.73 115.749L784.812 115.749L784.812 89.7863L783.73 89.7863Z" fill="black"/>
<path fill-rule="evenodd" clip-rule="evenodd" d="M795.629 25.9623L795.629 -4.7285e-08L796.711 0L796.711 25.9623L795.629 25.9623Z" fill="black"/>
<path fill-rule="evenodd" clip-rule="evenodd" d="M795.629 89.7863L795.629 115.749L796.711 115.749L796.711 89.7863L795.629 89.7863Z" fill="black"/>
<path fill-rule="evenodd" clip-rule="evenodd" d="M806.447 25.9623L806.447 -4.7285e-08L807.528 0L807.528 25.9623L806.447 25.9623Z" fill="black"/>
<path fill-rule="evenodd" clip-rule="evenodd" d="M806.447 89.7863L806.447 115.749L807.528 115.749L807.528 89.7863L806.447 89.7863Z" fill="black"/>
<path fill-rule="evenodd" clip-rule="evenodd" d="M817.265 37.8616L817.265 -4.7285e-08L818.347 0L818.347 37.8616L817.265 37.8616Z" fill="black"/>
<path fill-rule="evenodd" clip-rule="evenodd" d="M817.265 77.8869L817.265 115.749L818.347 115.749L818.347 77.8869L817.265 77.8869Z" fill="black"/>
<path fill-rule="evenodd" clip-rule="evenodd" d="M839.982 25.9623L839.982 -4.7285e-08L841.063 0L841.063 25.9623L839.982 25.9623Z" fill="black"/>
<path fill-rule="evenodd" clip-rule="evenodd" d="M839.982 89.7863L839.982 115.749L841.063 115.749L841.063 89.7863L839.982 89.7863Z" fill="black"/>
<path fill-rule="evenodd" clip-rule="evenodd" d="M850.799 25.9623L850.799 -4.7285e-08L851.881 0L851.881 25.9623L850.799 25.9623Z" fill="black"/>
<path fill-rule="evenodd" clip-rule="evenodd" d="M850.799 89.7863L850.799 115.749L851.881 115.749L851.881 89.7863L850.799 89.7863Z" fill="black"/>
<path fill-rule="evenodd" clip-rule="evenodd" d="M861.616 25.9623L861.616 -4.7285e-08L862.698 0L862.698 25.9623L861.616 25.9623Z" fill="black"/>
<path fill-rule="evenodd" clip-rule="evenodd" d="M861.616 89.7863L861.616 115.749L862.698 115.749L862.698 89.7863L861.616 89.7863Z" fill="black"/>
<path fill-rule="evenodd" clip-rule="evenodd" d="M884.333 25.9623L884.333 -4.7285e-08L885.415 0L885.415 25.9623L884.333 25.9623Z" fill="black"/>
<path fill-rule="evenodd" clip-rule="evenodd" d="M884.333 89.7863L884.333 115.749L885.415 115.749L885.415 89.7863L884.333 89.7863Z" fill="black"/>
<path fill-rule="evenodd" clip-rule="evenodd" d="M895.152 25.9623L895.152 -4.7285e-08L896.233 0L896.233 25.9623L895.152 25.9623Z" fill="black"/>
<path fill-rule="evenodd" clip-rule="evenodd" d="M895.152 89.7863L895.152 115.749L896.233 115.749L896.233 89.7863L895.152 89.7863Z" fill="black"/>
<path fill-rule="evenodd" clip-rule="evenodd" d="M905.969 25.9623L905.969 -4.7285e-08L907.051 0L907.051 25.9623L905.969 25.9623Z" fill="black"/>
<path fill-rule="evenodd" clip-rule="evenodd" d="M905.969 89.7863L905.969 115.749L907.051 115.749L907.051 89.7863L905.969 89.7863Z" fill="black"/>
<path fill-rule="evenodd" clip-rule="evenodd" d="M917.868 25.9623L917.868 -4.7285e-08L918.95 0L918.95 25.9623L917.868 25.9623Z" fill="black"/>
<path fill-rule="evenodd" clip-rule="evenodd" d="M917.868 89.7863L917.868 115.749L918.95 115.749L918.95 89.7863L917.868 89.7863Z" fill="black"/>
<path fill-rule="evenodd" clip-rule="evenodd" d="M928.686 37.8616L928.686 -4.7285e-08L929.768 0L929.768 37.8616L928.686 37.8616Z" fill="black"/>
<path fill-rule="evenodd" clip-rule="evenodd" d="M928.686 77.8869L928.686 115.749L929.768 115.749L929.768 77.8869L928.686 77.8869Z" fill="black"/>
<path fill-rule="evenodd" clip-rule="evenodd" d="M939.503 25.9623L939.503 -4.7285e-08L940.585 0L940.585 25.9623L939.503 25.9623Z" fill="black"/>
<path fill-rule="evenodd" clip-rule="evenodd" d="M939.503 89.7863L939.503 115.749L940.585 115.749L940.585 89.7863L939.503 89.7863Z" fill="black"/>
<path fill-rule="evenodd" clip-rule="evenodd" d="M962.221 25.9623L962.221 -4.7285e-08L963.303 0L963.303 25.9623L962.221 25.9623Z" fill="black"/>
<path fill-rule="evenodd" clip-rule="evenodd" d="M962.221 89.7863L962.221 115.749L963.303 115.749L963.303 89.7863L962.221 89.7863Z" fill="black"/>
<path fill-rule="evenodd" clip-rule="evenodd" d="M973.038 25.9623L973.038 -4.7285e-08L974.12 0L974.12 25.9623L973.038 25.9623Z" fill="black"/>
<path fill-rule="evenodd" clip-rule="evenodd" d="M973.038 89.7863L973.038 115.749L974.12 115.749L974.12 89.7863L973.038 89.7863Z" fill="black"/>
<path fill-rule="evenodd" clip-rule="evenodd" d="M983.856 37.8616L983.856 -4.7285e-08L984.938 0L984.937 37.8616L983.856 37.8616Z" fill="black"/>
<path fill-rule="evenodd" clip-rule="evenodd" d="M983.856 77.8869L983.856 115.749L984.938 115.749L984.937 77.8869L983.856 77.8869Z" fill="black"/>
<path fill-rule="evenodd" clip-rule="evenodd" d="M995.755 25.9623L995.755 -4.7285e-08L996.837 0L996.837 25.9623L995.755 25.9623Z" fill="black"/>
<path fill-rule="evenodd" clip-rule="evenodd" d="M995.755 89.7863L995.755 115.749L996.837 115.749L996.837 89.7863L995.755 89.7863Z" fill="black"/>
<path fill-rule="evenodd" clip-rule="evenodd" d="M1006.57 25.9623L1006.57 -4.7285e-08L1007.65 0L1007.65 25.9623L1006.57 25.9623Z" fill="black"/>
<path fill-rule="evenodd" clip-rule="evenodd" d="M1006.57 89.7863L1006.57 115.749L1007.65 115.749L1007.65 89.7863L1006.57 89.7863Z" fill="black"/>
<path fill-rule="evenodd" clip-rule="evenodd" d="M1017.39 25.9623L1017.39 -4.7285e-08L1018.47 0L1018.47 25.9623L1017.39 25.9623Z" fill="black"/>
<path fill-rule="evenodd" clip-rule="evenodd" d="M1017.39 89.7863L1017.39 115.749L1018.47 115.749L1018.47 89.7863L1017.39 89.7863Z" fill="black"/>
<path fill-rule="evenodd" clip-rule="evenodd" d="M1040.11 37.8616L1040.11 -4.7285e-08L1041.19 0L1041.19 37.8616L1040.11 37.8616Z" fill="black"/>
<path fill-rule="evenodd" clip-rule="evenodd" d="M1040.11 77.8869L1040.11 115.749L1041.19 115.749L1041.19 77.8869L1040.11 77.8869Z" fill="black"/>
<path fill-rule="evenodd" clip-rule="evenodd" d="M1050.93 25.9623L1050.93 -4.7285e-08L1052.01 0L1052.01 25.9623L1050.93 25.9623Z" fill="black"/>
<path fill-rule="evenodd" clip-rule="evenodd" d="M1050.93 89.7863L1050.93 115.749L1052.01 115.749L1052.01 89.7863L1050.93 89.7863Z" fill="black"/>
<path fill-rule="evenodd" clip-rule="evenodd" d="M1061.74 25.9623L1061.74 -4.7285e-08L1062.82 0L1062.82 25.9623L1061.74 25.9623Z" fill="black"/>
<path fill-rule="evenodd" clip-rule="evenodd" d="M1061.74 89.7863L1061.74 115.749L1062.82 115.749L1062.82 89.7863L1061.74 89.7863Z" fill="black"/>
<path fill-rule="evenodd" clip-rule="evenodd" d="M1084.46 25.9623L1084.46 -4.7285e-08L1085.54 0L1085.54 25.9623L1084.46 25.9623Z" fill="black"/>
<path fill-rule="evenodd" clip-rule="evenodd" d="M1084.46 89.7863L1084.46 115.749L1085.54 115.749L1085.54 89.7863L1084.46 89.7863Z" fill="black"/>
<path fill-rule="evenodd" clip-rule="evenodd" d="M1095.28 37.8616L1095.28 -4.7285e-08L1096.36 0L1096.36 37.8616L1095.28 37.8616Z" fill="black"/>
<path fill-rule="evenodd" clip-rule="evenodd" d="M1095.28 77.8869L1095.28 115.749L1096.36 115.749L1096.36 77.8869L1095.28 77.8869Z" fill="black"/>
<path fill-rule="evenodd" clip-rule="evenodd" d="M1106.09 25.9623L1106.09 -4.7285e-08L1107.18 0L1107.18 25.9623L1106.09 25.9623Z" fill="black"/>
<path fill-rule="evenodd" clip-rule="evenodd" d="M1106.09 89.7863L1106.09 115.749L1107.18 115.749L1107.18 89.7863L1106.09 89.7863Z" fill="black"/>
<path fill-rule="evenodd" clip-rule="evenodd" d="M1117.99 25.9623L1117.99 -4.7285e-08L1119.08 0L1119.08 25.9623L1117.99 25.9623Z" fill="black"/>
<path fill-rule="evenodd" clip-rule="evenodd" d="M1117.99 89.7863L1117.99 115.749L1119.08 115.749L1119.08 89.7863L1117.99 89.7863Z" fill="black"/>
<path fill-rule="evenodd" clip-rule="evenodd" d="M1128.81 25.9623L1128.81 -4.7285e-08L1129.89 0L1129.89 25.9623L1128.81 25.9623Z" fill="black"/>
<path fill-rule="evenodd" clip-rule="evenodd" d="M1128.81 89.7863L1128.81 115.749L1129.89 115.749L1129.89 89.7863L1128.81 89.7863Z" fill="black"/>
<path fill-rule="evenodd" clip-rule="evenodd" d="M1139.63 25.9623L1139.63 -4.7285e-08L1140.71 0L1140.71 25.9623L1139.63 25.9623Z" fill="black"/>
<path fill-rule="evenodd" clip-rule="evenodd" d="M1139.63 89.7863L1139.63 115.749L1140.71 115.749L1140.71 89.7863L1139.63 89.7863Z" fill="black"/>
<path fill-rule="evenodd" clip-rule="evenodd" d="M1162.35 25.9623L1162.35 -4.7285e-08L1163.43 0L1163.43 25.9623L1162.35 25.9623Z" fill="black"/>
<path fill-rule="evenodd" clip-rule="evenodd" d="M1162.35 89.7863L1162.35 115.749L1163.43 115.749L1163.43 89.7863L1162.35 89.7863Z" fill="black"/>
<path fill-rule="evenodd" clip-rule="evenodd" d="M1173.16 25.9623L1173.16 -4.7285e-08L1174.25 0L1174.25 25.9623L1173.16 25.9623Z" fill="black"/>
<path fill-rule="evenodd" clip-rule="evenodd" d="M1173.16 89.7863L1173.16 115.749L1174.25 115.749L1174.25 89.7863L1173.16 89.7863Z" fill="black"/>
<path fill-rule="evenodd" clip-rule="evenodd" d="M1183.98 25.9623L1183.98 -4.7285e-08L1185.06 0L1185.06 25.9623L1183.98 25.9623Z" fill="black"/>
<path fill-rule="evenodd" clip-rule="evenodd" d="M1183.98 89.7863L1183.98 115.749L1185.06 115.749L1185.06 89.7863L1183.98 89.7863Z" fill="black"/>
<path fill-rule="evenodd" clip-rule="evenodd" d="M1206.7 37.8616L1206.7 -4.7285e-08L1207.78 0L1207.78 37.8616L1206.7 37.8616Z" fill="black"/>
<path fill-rule="evenodd" clip-rule="evenodd" d="M1206.7 77.8869L1206.7 115.749L1207.78 115.749L1207.78 77.8869L1206.7 77.8869Z" fill="black"/>
<path fill-rule="evenodd" clip-rule="evenodd" d="M1217.52 25.9623L1217.52 -4.7285e-08L1218.6 0L1218.6 25.9623L1217.52 25.9623Z" fill="black"/>
<path fill-rule="evenodd" clip-rule="evenodd" d="M1217.52 89.7863L1217.52 115.749L1218.6 115.749L1218.6 89.7863L1217.52 89.7863Z" fill="black"/>
<path fill-rule="evenodd" clip-rule="evenodd" d="M1240.23 25.9623L1240.23 -4.7285e-08L1241.31 0L1241.31 25.9623L1240.23 25.9623Z" fill="black"/>
<path fill-rule="evenodd" clip-rule="evenodd" d="M1240.23 89.7863L1240.23 115.749L1241.31 115.749L1241.31 89.7863L1240.23 89.7863Z" fill="black"/>
<path fill-rule="evenodd" clip-rule="evenodd" d="M1251.05 25.9623L1251.05 -4.7285e-08L1252.13 0L1252.13 25.9623L1251.05 25.9623Z" fill="black"/>
<path fill-rule="evenodd" clip-rule="evenodd" d="M1251.05 89.7863L1251.05 115.749L1252.13 115.749L1252.13 89.7863L1251.05 89.7863Z" fill="black"/>
<path fill-rule="evenodd" clip-rule="evenodd" d="M1261.87 37.8616L1261.87 -4.7285e-08L1262.95 0L1262.95 37.8616L1261.87 37.8616Z" fill="black"/>
<path fill-rule="evenodd" clip-rule="evenodd" d="M1261.87 77.8869L1261.87 115.749L1262.95 115.749L1262.95 77.8869L1261.87 77.8869Z" fill="black"/>
<path d="M595.504 61.6605H593.295V50.7704C592.574 51.1563 591.635 51.3492 590.478 51.3492H587.932V49.3555H590.298C591.32 49.3555 592.071 49.2126 592.552 48.9268C593.047 48.6409 593.295 48.1979 593.295 47.5977H595.504V61.6605Z" fill="black"/>
<path d="M498.861 61.6604C497.629 61.6604 496.55 61.452 495.622 61.0351C494.695 60.6043 493.982 59.9999 493.484 59.2217C492.985 58.4297 492.736 57.5126 492.736 56.4704V56.0953C492.736 55.0253 492.985 54.0943 493.484 53.3023C493.982 52.5102 494.688 51.9058 495.602 51.4889C496.529 51.0582 497.616 50.8428 498.861 50.8428C499.983 50.8428 500.993 51.0373 501.893 51.4264C502.792 51.8016 503.491 52.3296 503.99 53.0105C504.502 53.6774 504.758 54.4347 504.758 55.2824V55.3657H502.703V55.2824C502.703 54.7821 502.536 54.3375 502.204 53.9484C501.886 53.5454 501.429 53.2328 500.834 53.0105C500.252 52.7881 499.595 52.677 498.861 52.677C497.588 52.677 496.591 52.9827 495.872 53.5941C495.152 54.1916 494.792 55.0323 494.792 56.1161V56.4496C494.792 57.5056 495.152 58.3324 495.872 58.9299C496.591 59.5274 497.588 59.8262 498.861 59.8262C499.609 59.8262 500.273 59.715 500.855 59.4927C501.436 59.2704 501.886 58.9647 502.204 58.5756C502.536 58.1865 502.703 57.7419 502.703 57.2416V57.1583H504.758V57.2416C504.758 58.1031 504.509 58.8674 504.011 59.5344C503.512 60.2014 502.813 60.7224 501.914 61.0976C501.028 61.4728 500.01 61.6604 498.861 61.6604Z" fill="black"/>
<path d="M524.107 51.0929V61.4103H522.197V53.1564L521.72 54.0109L517.276 61.4103H515.512L511.068 54.0109L510.591 53.1564V61.4103H508.681V51.0929H511.504L516.404 59.3259L521.284 51.0929H524.107Z" fill="black"/>
<path d="M713.416 59.7869V61.6605H700.435V59.9764L706.595 56.4606C707.803 55.7729 708.698 55.2186 709.28 54.7975C709.863 54.3624 710.254 53.9624 710.453 53.5975C710.666 53.2326 710.773 52.7976 710.773 52.2923V52.0818C710.773 51.2678 710.424 50.6432 709.728 50.2081C709.046 49.7731 708.058 49.5555 706.765 49.5555C705.43 49.5555 704.413 49.7871 703.717 50.2502C703.035 50.7134 702.694 51.3871 702.694 52.2713V52.6923H700.562V52.2502C700.562 50.7485 701.095 49.5976 702.161 48.7976C703.227 47.9976 704.747 47.5977 706.723 47.5977C708.655 47.5977 710.169 47.9906 711.263 48.7766C712.357 49.5625 712.904 50.6432 712.904 52.0186V52.2291C712.904 52.973 712.755 53.6256 712.457 54.187C712.158 54.7484 711.639 55.3168 710.9 55.8922C710.176 56.4677 709.11 57.1554 707.703 57.9554L704.463 59.7869H713.416Z" fill="black"/>
<path d="M819.218 53.0712C821.036 53.1274 822.424 53.4993 823.381 54.187C824.351 54.8607 824.837 55.801 824.837 57.008V57.2817C824.837 58.6992 824.283 59.7869 823.176 60.5448C822.068 61.2886 820.455 61.6605 818.336 61.6605C816.271 61.6465 814.672 61.2746 813.537 60.5448C812.416 59.815 811.855 58.7834 811.855 57.4501V57.3027H813.886V57.4501C813.886 58.1518 814.282 58.7062 815.075 59.1132C815.868 59.5062 816.962 59.7027 818.356 59.7027C819.819 59.7027 820.927 59.5062 821.678 59.1132C822.43 58.7062 822.806 58.1097 822.806 57.3238V57.0712C822.806 55.5975 821.344 54.8607 818.418 54.8607H816.203V53.0081L821.268 49.4713H812.102V47.5977H824.508V49.4713L819.218 53.0712Z" fill="black"/>
<path d="M938.422 58.4664H934.629V61.6605H932.496V58.4664H922.195V56.537C923.287 54.8506 924.178 53.3071 924.867 51.9066C925.557 50.4917 926.132 49.0554 926.591 47.5977H928.854V47.9192C927.935 50.6918 926.541 53.5644 924.673 56.537H932.496V50.0844H934.629V56.537H938.422V58.4664Z" fill="black"/>
<path d="M1040.65 52.4607C1042.84 52.4607 1044.55 52.8467 1045.79 53.6186C1047.05 54.3905 1047.68 55.4572 1047.68 56.8185V57.1554C1047.68 58.5869 1047.07 59.6957 1045.84 60.4816C1044.61 61.2676 1042.88 61.6605 1040.65 61.6605C1038.4 61.6605 1036.66 61.3307 1035.44 60.6711C1034.22 60.0115 1033.62 59.0711 1033.62 57.8501V57.6817H1035.84V57.8501C1035.84 58.4255 1036.26 58.8817 1037.1 59.2185C1037.94 59.5413 1039.1 59.7027 1040.58 59.7027C1042.11 59.7027 1043.3 59.4781 1044.18 59.029C1045.05 58.5799 1045.48 57.9624 1045.48 57.1764V56.8396C1045.48 56.0817 1045.04 55.4852 1044.15 55.0501C1043.28 54.6151 1042.07 54.3975 1040.52 54.3975C1039.16 54.3975 1038.04 54.5659 1037.17 54.9028C1036.29 55.2256 1035.84 55.6536 1035.79 56.187H1033.62L1034.11 47.5977H1046.75V49.4713H1036.06L1035.84 53.5344C1036.97 52.8186 1038.58 52.4607 1040.65 52.4607Z" fill="black"/>
<path d="M1151.89 52.8919C1153.86 52.8919 1155.37 53.2435 1156.43 53.9466C1157.49 54.636 1158.02 55.6425 1158.02 56.966V57.2556C1158.02 58.6343 1157.46 59.7166 1156.33 60.5024C1155.22 61.2745 1153.69 61.6605 1151.75 61.6605C1150.37 61.6605 1149.17 61.4537 1148.15 61.0401C1147.15 60.6265 1146.37 60.0337 1145.83 59.2616C1145.3 58.4895 1145.04 57.5796 1145.04 56.5317V53.0987C1145.04 51.3753 1145.62 50.0311 1146.78 49.066C1147.96 48.0871 1149.59 47.5977 1151.67 47.5977C1152.91 47.5977 1154 47.77 1154.92 48.1147C1155.85 48.4594 1156.56 48.9557 1157.05 49.6037C1157.55 50.2379 1157.8 50.9893 1157.8 51.8579V52.0233H1155.84V51.8579C1155.84 51.1272 1155.47 50.555 1154.72 50.1414C1153.98 49.7278 1152.96 49.521 1151.67 49.521C1150.16 49.521 1149 49.8243 1148.19 50.4309C1147.4 51.0376 1147 51.913 1147 53.0574V54.3396C1148.15 53.3745 1149.78 52.8919 1151.89 52.8919ZM1156.05 57.0487C1156.05 55.5459 1154.66 54.7945 1151.87 54.7945C1150.71 54.7945 1149.72 54.9393 1148.87 55.2288C1148.02 55.5046 1147.4 55.9044 1147 56.4283V56.5524C1147 57.5451 1147.42 58.3241 1148.25 58.8893C1149.09 59.4546 1150.26 59.7372 1151.77 59.7372C1153.12 59.7372 1154.17 59.5304 1154.92 59.1168C1155.68 58.7032 1156.05 58.1104 1156.05 57.3383V57.0487Z" fill="black"/>
<path d="M1267.97 54.4223C1268.81 54.7118 1269.45 55.1117 1269.87 55.6218C1270.3 56.1319 1270.52 56.7454 1270.52 57.4624V57.6899C1270.52 60.337 1268.18 61.6605 1263.49 61.6605C1258.8 61.6605 1256.46 60.337 1256.46 57.6899V57.4624C1256.46 56.7454 1256.67 56.1319 1257.09 55.6218C1257.53 55.1117 1258.17 54.7118 1259.01 54.4223C1258.37 54.1328 1257.89 53.7605 1257.56 53.3055C1257.24 52.8368 1257.07 52.306 1257.07 51.7131V51.4856C1257.07 50.7136 1257.34 50.0311 1257.87 49.4382C1258.4 48.8454 1259.15 48.3904 1260.12 48.0733C1261.09 47.7562 1262.21 47.5977 1263.49 47.5977C1264.77 47.5977 1265.9 47.7562 1266.86 48.0733C1267.83 48.3904 1268.58 48.8454 1269.11 49.4382C1269.64 50.0311 1269.91 50.7136 1269.91 51.4856V51.7131C1269.91 52.306 1269.75 52.8368 1269.42 53.3055C1269.09 53.7605 1268.61 54.1328 1267.97 54.4223ZM1259.08 51.6511C1259.08 52.3542 1259.43 52.8712 1260.14 53.2021C1260.86 53.533 1261.98 53.6985 1263.49 53.6985C1264.99 53.6985 1266.09 53.533 1266.8 53.2021C1267.52 52.8712 1267.89 52.3542 1267.89 51.6511V51.4856C1267.89 50.1345 1266.42 49.4589 1263.49 49.4589C1260.55 49.4589 1259.08 50.1345 1259.08 51.4856V51.6511ZM1268.5 57.6071C1268.5 56.8764 1268.1 56.3525 1267.31 56.0354C1266.54 55.7045 1265.26 55.5391 1263.49 55.5391C1261.72 55.5391 1260.44 55.7045 1259.65 56.0354C1258.87 56.3525 1258.48 56.8764 1258.48 57.6071V57.7726C1258.48 58.4757 1258.89 58.9927 1259.69 59.3236C1260.49 59.6407 1261.76 59.7993 1263.49 59.7993C1265.22 59.7993 1266.49 59.6407 1267.29 59.3236C1268.1 58.9927 1268.5 58.4757 1268.5 57.7726V57.6071Z" fill="black"/>
<rect y="223" width="472" height="256" fill="#BC271C"/>
</svg>
