<svg width="1440" height="787" viewBox="0 0 1440 787" fill="none" xmlns="http://www.w3.org/2000/svg">
<path d="M1279.22 62.251L1440 47.5L1440 155.5L1290.96 170.757L1279.22 62.251Z" fill="#BC271C"/>
<path d="M1279.22 62.251L1316.49 406.608L1207.99 418.353L1170.71 73.9962L1279.22 62.251Z" fill="#BC271C"/>
<path fill-rule="evenodd" clip-rule="evenodd" d="M742.197 93.9484C722.805 76.7388 697.572 68.25 662.642 75.1627C644.746 78.7044 633.369 84.6067 626.243 91.1318C619.353 97.4411 615.306 105.35 613.736 115.373C610.381 136.798 618.516 167.183 637.136 203.802C656.994 242.857 686.691 285.049 718.348 324.184C750.193 340.953 781.121 359.163 807.743 375.954C810.714 314.977 807.118 238.641 788.773 177.277C777.918 140.968 762.502 111.968 742.197 93.9484ZM644.782 289.344C628.963 266.455 614.731 243.349 603.356 220.978C583.951 182.815 571.006 143.296 576.297 109.51C579.05 91.928 586.757 75.9051 600.65 63.1833C614.308 50.6772 632.743 42.449 655.285 37.9878C701.232 28.8947 738.647 40.1314 767.351 65.6045C795.141 90.2676 813.268 126.907 825.081 166.422C848.73 245.529 849.486 344.449 843.247 411.089L841.674 427.889L824.805 428.266C812.104 428.55 798.077 428.622 783.171 428.418L771.428 440.088C767.529 436.164 763.539 432.088 759.475 427.872C709.942 426.273 653.956 421.584 605.594 411.766C570.084 404.556 536.735 394.214 513.084 379.005C501.137 371.322 490.575 361.711 483.902 349.56C476.978 336.95 474.886 322.735 478.333 307.741C481.784 292.729 489.92 280.846 502.261 273.156C514.016 265.831 527.974 263.305 541.85 263.25C569.303 263.141 602.93 272.737 636.886 286.157C639.504 287.192 642.137 288.255 644.782 289.344ZM722.87 388.187C685.67 385.814 647.195 381.543 613.133 374.627C578.986 367.695 551.216 358.471 533.581 347.131C524.884 341.539 519.761 336.129 517.119 331.318C514.728 326.965 513.875 322.277 515.265 316.232C516.651 310.205 519.219 307.24 522.302 305.319C525.972 303.033 532.158 301.184 542 301.145C561.98 301.066 590.077 308.406 622.957 321.401C645.805 330.431 669.977 341.785 693.891 354.163C703.512 365.891 713.239 377.284 722.87 388.187Z" fill="#BC271C"/>
<path d="M5.18986e-06 443L1440 293L1440 571L-0.00011916 721.499L5.18986e-06 443Z" fill="#BC271C"/>
<path d="M132.823 419.043L134.021 430.366L191.665 424.267L190.467 412.944L204.363 411.474L202.566 394.489L188.67 395.96L187.472 384.637L201.368 383.166C200.152 371.672 189.37 349.462 155.976 352.579C122.581 355.696 116.737 380.151 117.99 391.988L129.828 390.736L131.026 402.059L116.1 403.638L117.897 420.622L132.823 419.043Z" fill="#BC271C"/>
<path d="M298.588 348.041L300.276 363.996L352.34 765.404L390.788 759.687L337.036 342.323L298.588 348.041Z" fill="#BC271C"/>
<path d="M416.673 757.695L362.921 340.331L398.347 337.407L452.099 754.771L416.673 757.695Z" fill="#BC271C"/>
<path d="M1293.72 450.286C1288.87 612.886 1153.12 740.764 990.519 735.91C827.919 731.055 700.04 595.306 704.895 432.706C709.749 270.106 845.498 142.227 1008.1 147.082C1170.7 151.936 1298.58 287.685 1293.72 450.286Z" fill="black"/>
<path d="M1268.65 450.234C1264.22 598.611 1140.34 715.304 991.963 710.874C843.586 706.444 726.893 582.569 731.323 434.192C735.753 285.814 859.628 169.121 1008.01 173.551C1156.38 177.981 1273.08 301.856 1268.65 450.234Z" fill="#F0C243"/>
<path d="M1019.48 442.795C1019.15 453.558 1010.17 462.023 999.405 461.701C988.642 461.38 980.177 452.394 980.498 441.631C980.82 430.868 989.805 422.403 1000.57 422.724C1011.33 423.046 1019.8 432.031 1019.48 442.795Z" fill="black"/>
<path d="M837.573 484.697L997.634 442.142L999.773 449.306L847.585 503.929L827.607 503.332L763.547 521.536L825.433 497.351L837.573 484.697Z" fill="black"/>
<path fill-rule="evenodd" clip-rule="evenodd" d="M1037.02 578.465C1066.62 579.349 1091.33 556.071 1092.21 526.472C1093.09 496.874 1069.82 472.163 1040.22 471.279C1010.62 470.396 985.908 493.674 985.025 523.272C984.141 552.871 1007.42 577.582 1037.02 578.465ZM1036.93 581.249C1068.07 582.179 1094.07 557.692 1094.99 526.555C1095.92 495.419 1071.44 469.425 1040.3 468.495C1009.16 467.566 983.17 492.053 982.241 523.189C981.311 554.325 1005.8 580.32 1036.93 581.249Z" fill="black"/>
<path d="M1046.6 525.891C1046.5 529.049 1043.86 531.532 1040.71 531.438C1037.55 531.343 1035.07 528.707 1035.16 525.549C1035.25 522.392 1037.89 519.908 1041.05 520.002C1044.21 520.097 1046.69 522.733 1046.6 525.891Z" fill="black"/>
<path d="M1079.62 505.894L1076.31 510.246L991.317 545.86L1077.53 512.19L1082.61 512.342L1087.25 506.121L1079.62 505.894Z" fill="black"/>
<path fill-rule="evenodd" clip-rule="evenodd" d="M1009 233.492L1010.29 190.339L1014.47 190.464L1013.18 233.616L1009 233.492Z" fill="black"/>
<path fill-rule="evenodd" clip-rule="evenodd" d="M1154.08 301.563L1185.51 271.96L1188.37 275.001L1156.95 304.604L1154.08 301.563Z" fill="black"/>
<path fill-rule="evenodd" clip-rule="evenodd" d="M995.651 704.018L996.939 660.865L1001.12 660.99L999.827 704.143L995.651 704.018Z" fill="black"/>
<path fill-rule="evenodd" clip-rule="evenodd" d="M811.93 624.835L843.354 595.232L846.219 598.273L814.795 627.876L811.93 624.835Z" fill="black"/>
<path fill-rule="evenodd" clip-rule="evenodd" d="M788.335 437.984L745.182 436.696L745.306 432.519L788.459 433.808L788.335 437.984Z" fill="black"/>
<path fill-rule="evenodd" clip-rule="evenodd" d="M853.449 290.125L823.847 258.7L826.888 255.835L856.49 287.26L853.449 290.125Z" fill="black"/>
<path fill-rule="evenodd" clip-rule="evenodd" d="M1253.27 451.865L1210.12 450.577L1210.24 446.401L1253.4 447.689L1253.27 451.865Z" fill="black"/>
<path fill-rule="evenodd" clip-rule="evenodd" d="M1172.39 628.701L1142.79 597.276L1145.83 594.411L1175.43 625.836L1172.39 628.701Z" fill="black"/>
<path d="M1143.73 317.733L1143.73 317.599C1143.76 316.827 1143.23 316.187 1142.14 315.679C1141.06 315.171 1139.59 314.89 1137.75 314.835C1135.64 314.772 1134.08 315.022 1133.05 315.586C1132.02 316.15 1131.49 317.04 1131.45 318.258L1131.43 319.06C1131.39 320.277 1131.87 321.198 1132.86 321.822C1133.85 322.446 1135.41 322.79 1137.51 322.853C1139.5 322.912 1141.01 322.734 1142.03 322.319C1143.09 321.905 1143.62 321.282 1143.65 320.45L1143.65 320.316L1152.52 320.581L1152.51 320.715C1152.43 323.417 1151.39 325.63 1149.37 327.353C1147.39 329.077 1144.67 330.141 1141.21 330.543L1141.1 334.017L1133.09 333.778L1133.19 330.259C1129.73 329.591 1127.05 328.247 1125.15 326.229C1123.28 324.211 1122.39 321.733 1122.48 318.793L1122.5 317.991C1122.59 315.051 1123.63 312.63 1125.61 310.727C1127.63 308.826 1130.39 307.645 1133.88 307.184L1133.98 303.665L1142 303.905L1141.9 307.424C1145.24 308.058 1147.88 309.311 1149.81 311.182C1151.75 313.053 1152.68 315.28 1152.6 317.864L1152.59 317.998L1143.73 317.733Z" fill="#D9362B"/>
<path d="M1193.15 447.69C1193.11 449.056 1192.83 450.326 1192.32 451.499L1196.77 456.314L1191.19 461.051L1186.88 456.107C1185.08 456.708 1183.04 456.974 1180.75 456.905C1178.46 456.837 1176.44 456.45 1174.68 455.743L1170.08 460.421L1164.79 455.359L1169.52 450.818C1169.08 449.616 1168.88 448.332 1168.92 446.966L1168.93 446.655C1168.97 445.199 1169.26 443.885 1169.8 442.713L1165.31 437.853L1170.89 433.115L1175.2 438.059C1177 437.459 1179.05 437.193 1181.34 437.261C1183.62 437.329 1185.65 437.717 1187.41 438.423L1192.01 433.745L1197.29 438.807L1192.52 443.391C1192.99 444.594 1193.2 445.923 1193.16 447.378L1193.15 447.69ZM1184.7 447.081C1184.72 446.22 1184.44 445.602 1183.86 445.228C1183.31 444.825 1182.39 444.604 1181.12 444.566C1179.84 444.528 1178.9 444.693 1178.29 445.062C1177.72 445.401 1177.42 446.001 1177.39 446.863L1177.38 447.174C1177.36 447.976 1177.64 448.579 1178.22 448.983C1178.8 449.357 1179.72 449.563 1180.97 449.6C1182.21 449.637 1183.14 449.486 1183.74 449.148C1184.35 448.779 1184.66 448.194 1184.69 447.393L1184.7 447.081Z" fill="#D9362B"/>
<path d="M820.225 451.358C816.573 451.249 813.383 450.544 810.658 449.244C807.933 447.915 805.848 446.099 804.4 443.796C802.954 441.465 802.276 438.784 802.367 435.755L802.373 435.532C802.464 432.503 803.3 429.883 804.882 427.671C806.465 425.43 808.656 423.727 811.455 422.562C814.254 421.397 817.479 420.869 821.132 420.978C824.577 421.081 827.634 421.722 830.304 422.902C833.003 424.082 835.08 425.69 836.535 427.725C838.021 429.731 838.727 431.981 838.652 434.475L838.643 434.787L829.511 434.515L829.521 434.203C829.563 432.777 828.795 431.625 827.216 430.746C825.667 429.867 823.541 429.387 820.839 429.307C817.75 429.215 815.433 429.695 813.885 430.749C812.368 431.803 811.575 433.459 811.508 435.716L811.494 436.161C811.427 438.418 812.12 440.103 813.573 441.217C815.026 442.33 817.326 442.934 820.474 443.028C823.265 443.111 825.43 442.79 826.967 442.063C828.536 441.307 829.341 440.202 829.385 438.746L829.394 438.435L838.526 438.707L838.517 439.019C838.443 441.484 837.605 443.673 836.002 445.587C834.429 447.502 832.26 448.968 829.495 449.985C826.76 451.003 823.67 451.461 820.225 451.358ZM824.875 450.917L822.511 458.426L813.557 458.159L816.954 447.426L824.875 450.917Z" fill="#D9362B"/>
<path d="M886.908 298.061C888.769 299.454 890.189 301.176 891.168 303.226C892.148 305.247 892.6 307.519 892.525 310.043L892.518 310.266C892.428 313.295 891.606 315.931 890.053 318.173C888.53 320.387 886.384 322.076 883.615 323.242C880.847 324.378 877.651 324.892 874.028 324.784C872.484 324.738 871.091 324.592 869.85 324.347L868.026 327.19L858.984 326.92L859.024 325.584L861.966 321.124C860.075 319.73 858.64 318.023 857.66 316.002C856.681 313.952 856.229 311.679 856.303 309.185L856.31 308.962C856.4 305.933 857.222 303.312 858.774 301.1C860.357 298.858 862.533 297.155 865.302 295.989C868.101 294.824 871.312 294.296 874.935 294.404C876.42 294.448 877.768 294.593 878.979 294.837L880.803 291.993L889.846 292.263L889.806 293.6L886.908 298.061ZM865.43 309.636C865.369 311.655 865.782 313.272 866.667 314.488L874.847 301.847L874.668 301.842C871.61 301.75 869.32 302.291 867.798 303.465C866.308 304.609 865.524 306.458 865.448 309.012L865.43 309.636ZM883.444 309.549C883.506 307.471 883.08 305.838 882.164 304.651L873.983 317.337L874.206 317.343C877.264 317.435 879.539 316.908 881.03 315.764C882.551 314.59 883.349 312.727 883.426 310.173L883.444 309.549ZM885.274 284.102L885.072 290.872L864.858 292.944L865.06 286.173L885.274 284.102Z" fill="#D9362B"/>
<path d="M999.463 287.544C988.06 287.204 982.502 282.223 982.789 272.601L982.798 272.289C982.942 267.478 984.475 263.913 987.398 261.592C990.351 259.243 994.664 258.153 1000.34 258.323L1035.79 259.381L1035.56 267.043L1015.96 266.458L1015.87 269.621L1033.15 270.137L1032.93 277.665L1015.65 277.149L1015.55 280.356L1035.15 280.941L1034.92 288.603L999.463 287.544ZM1007 266.547L1000.14 266.342C997.438 266.261 995.403 266.736 994.035 267.765C992.697 268.765 991.996 270.334 991.933 272.473L991.917 273.007C991.852 275.175 992.443 276.783 993.69 277.831C994.937 278.878 996.941 279.444 999.703 279.526L1006.61 279.732L1007 266.547Z" fill="#D9362B"/>
<path d="M1148.05 571.492C1147.98 573.898 1147.29 575.869 1146 577.406C1144.7 578.942 1142.75 580.043 1140.15 580.708L1140.12 581.822L1147.73 582.05L1147.53 588.731L1131.41 588.25L1131.78 575.866C1134.19 575.819 1135.97 575.486 1137.11 574.866C1138.26 574.247 1138.85 573.299 1138.89 572.022L1138.91 571.576C1138.95 570.18 1138.25 569.119 1136.82 568.393C1135.38 567.666 1133.15 567.258 1130.12 567.167C1127.09 567.077 1124.84 567.352 1123.36 567.991C1121.89 568.631 1121.13 569.648 1121.09 571.044L1121.07 571.49C1121.04 572.767 1121.57 573.749 1122.68 574.436C1123.79 575.123 1125.54 575.561 1127.95 575.752L1127.58 588.135L1111.45 587.654L1111.65 580.972L1119.27 581.2L1119.3 580.086C1116.74 579.267 1114.86 578.051 1113.66 576.44C1112.46 574.829 1111.89 572.821 1111.97 570.415L1111.98 570.103C1112.05 567.579 1112.83 565.418 1114.31 563.619C1115.82 561.821 1117.94 560.473 1120.67 559.573C1123.4 558.674 1126.64 558.28 1130.38 558.392C1134.12 558.504 1137.33 559.09 1140 560.151C1142.68 561.211 1144.7 562.684 1146.07 564.567C1147.47 566.452 1148.13 568.656 1148.06 571.181L1148.05 571.492ZM1110.23 558.37L1108.99 570.014L1101.33 569.785L1102.57 558.141L1110.23 558.37Z" fill="#D9362B"/>
<path d="M1007.32 625.607C1009.66 626.896 1011.32 628.283 1012.32 629.769C1013.32 631.255 1013.78 633.023 1013.72 635.072L1013.71 635.473C1013.61 638.977 1012.29 641.672 1009.77 643.559C1007.24 645.445 1003.82 646.324 999.479 646.194C996.599 646.108 994.118 645.588 992.036 644.634C989.954 643.681 988.374 642.355 987.295 640.659C986.217 638.932 985.712 636.926 985.78 634.639L985.792 634.238C985.859 632.011 986.582 630.19 987.962 628.774C989.341 627.359 991.302 626.392 993.844 625.874L987.319 621.934L987.549 614.227L1011.96 614.956L1011.73 622.529L1001.18 622.214L1007.32 625.607ZM1004.81 634.984C1004.83 634.212 1004.63 633.522 1004.2 632.915C1003.77 632.278 1002.98 631.571 1001.81 630.793L1001.63 630.788C999.436 630.722 997.748 631.013 996.569 631.662C995.392 632.281 994.784 633.228 994.746 634.505L994.74 634.684C994.697 636.139 995.094 637.265 995.932 638.063C996.771 638.861 998.006 639.284 999.64 639.333C1003 639.433 1004.72 638.043 1004.8 635.162L1004.81 634.984Z" fill="#D9362B"/>
<path d="M866.454 567.655L866.457 567.566C866.482 566.734 866.07 566.083 865.222 565.612C864.375 565.111 863.195 564.838 861.68 564.793C860.225 564.749 859.06 564.937 858.186 565.357C857.342 565.748 856.908 566.33 856.885 567.102L856.876 567.414C856.854 568.156 857.104 568.743 857.626 569.175C858.149 569.577 858.915 569.793 859.925 569.823L867.854 570.06L867.648 576.964L858.561 576.693C856.66 576.636 855.692 577.217 855.655 578.434L855.645 578.79C855.623 579.503 855.979 580.034 856.712 580.383C857.475 580.703 858.733 580.889 860.485 580.941L866.142 581.11C868.993 581.195 871.083 581.882 872.411 583.17C873.74 584.458 874.366 586.394 874.289 588.977L874.277 589.378C874.135 594.13 871.273 596.422 865.69 596.255L858.696 596.047L858.882 589.81L864.851 589.989C865.505 590.008 865.837 589.84 865.847 589.483L865.854 589.261C865.866 588.874 865.545 588.672 864.891 588.652L860.259 588.514C855.953 588.385 852.59 587.512 850.172 585.894C847.783 584.277 846.628 582.118 846.709 579.415L846.729 578.747C846.813 575.926 848.122 573.899 850.656 572.667C848.764 571.303 847.858 569.314 847.936 566.701L847.961 565.854C848.016 564.013 848.629 562.412 849.799 561.05C850.97 559.658 852.576 558.606 854.619 557.894C856.691 557.183 859.048 556.867 861.691 556.946C864.453 557.029 866.875 557.547 868.957 558.501C871.04 559.425 872.637 560.691 873.748 562.3C874.859 563.908 875.384 565.752 875.322 567.83L875.319 567.92L866.454 567.655Z" fill="#D9362B"/>
<path d="M990.752 349.058L1002.53 329.434L1013.37 349.733L1036.03 354.875L1019.66 371.284L1021.53 394.092L1000.97 384.003L979.527 392.838L983.124 370.193L967.825 352.718L990.752 349.058Z" fill="#D9362B"/>
<path d="M1456.33 356.514C1450.08 366.304 1437.08 369.176 1427.29 362.93C1417.5 356.683 1414.63 343.683 1420.87 333.893C1427.12 324.103 1440.12 321.23 1449.91 327.476C1459.7 333.723 1462.57 346.723 1456.33 356.514Z" fill="black"/>
<path fill-rule="evenodd" clip-rule="evenodd" d="M1393.72 415.063C1432.5 439.808 1484 428.428 1508.74 389.645C1533.49 350.862 1522.11 299.362 1483.32 274.617C1444.54 249.872 1393.04 261.252 1368.3 300.035C1343.55 338.818 1354.93 390.318 1393.72 415.063ZM1383.52 431.036C1431.13 461.41 1494.34 447.442 1524.72 399.837C1555.09 352.232 1541.12 289.017 1493.52 258.644C1445.91 228.27 1382.7 242.238 1352.32 289.843C1321.95 337.448 1335.92 400.663 1383.52 431.036Z" fill="black"/>
<path d="M1360.01 287.575L1524.42 392.478L1517.92 402.671L1353.5 297.768L1360.01 287.575Z" fill="black"/>
<path d="M1496.67 266.893L1391.77 431.309L1381.58 424.805L1486.48 260.389L1496.67 266.893Z" fill="black"/>
<path d="M91.9661 541.083L93.7964 558.266L60.6718 561.794L65.5118 607.233L46.3244 609.277L39.654 546.655L91.9661 541.083ZM165.089 596.626L145.901 598.67L141.061 553.231L120.06 555.468L121.545 573.943C122.233 582.816 120.88 589.75 117.486 594.746C114.092 599.741 108.703 602.632 101.321 603.419L95.4027 604.049L93.5724 586.866L95.8635 586.622C99.1091 586.277 101.34 585.17 102.558 583.303C103.831 581.365 104.283 578.356 103.913 574.276L101.047 540.116L158.418 534.005L165.089 596.626ZM189.533 530.69L193.376 566.774L217.407 527.721L236.595 525.677L243.265 588.299L224.364 590.312L220.52 554.229L196.49 593.282L177.302 595.325L170.632 532.704L189.533 530.69ZM314.031 522.739C320.332 522.068 325.917 522.535 330.786 524.14C335.655 525.745 339.538 528.357 342.433 531.975C345.329 535.592 347.061 540.074 347.631 545.42L347.681 545.897C348.244 551.179 347.491 555.893 345.423 560.04C343.354 564.186 340.106 567.525 335.677 570.056C331.312 572.581 325.947 574.182 319.583 574.86L310.801 575.796L311.492 582.287L292.305 584.331L291.613 577.839L282.736 578.785C276.435 579.456 270.854 579.021 265.991 577.479C261.122 575.874 257.243 573.294 254.354 569.74C251.458 566.123 249.729 561.673 249.167 556.391L249.116 555.913C248.546 550.567 249.296 545.821 251.364 541.675C253.433 537.529 256.678 534.158 261.1 531.563C265.522 528.968 270.883 527.335 277.184 526.664L286.062 525.718L285.37 519.227L304.558 517.183L305.249 523.674L314.031 522.739ZM268.746 554.402C269.105 557.774 270.222 560.101 272.096 561.382C273.964 562.599 276.934 562.991 281.007 562.557L290.648 561.53L288.554 541.865L278.912 542.892C274.903 543.319 272.085 544.359 270.459 546.013C268.897 547.66 268.292 550.138 268.645 553.447L268.746 554.402ZM328.021 547.122C327.668 543.813 326.523 541.521 324.585 540.248C322.711 538.967 319.769 538.54 315.76 538.967L306.214 539.984L308.309 559.649L317.855 558.632C321.927 558.198 324.749 557.19 326.318 555.606C327.88 553.96 328.482 551.45 328.122 548.077L328.021 547.122ZM395.946 573.291C388.246 574.111 381.329 573.529 375.196 571.543C369.057 569.494 364.103 566.192 360.335 561.637C356.631 557.076 354.437 551.581 353.752 545.154L353.702 544.676C353.017 538.249 354.005 532.415 356.665 527.176C359.388 521.93 363.535 517.659 369.105 514.362C374.676 511.066 381.311 509.007 389.011 508.187C396.839 507.353 403.823 507.961 409.962 510.01C416.102 512.06 421.024 515.365 424.728 519.926C428.425 524.424 430.619 529.918 431.311 536.41L431.361 536.887C432.053 543.378 431.068 549.244 428.408 554.483C425.742 559.658 421.623 563.894 416.053 567.191C410.476 570.424 403.774 572.457 395.946 573.291ZM394.045 555.44C400.663 554.735 405.41 553.071 408.284 550.448C411.151 547.761 412.331 544.031 411.823 539.258L411.721 538.303C410.704 528.757 403.768 524.669 390.913 526.038C384.612 526.709 379.968 528.427 376.98 531.191C373.992 533.955 372.749 537.692 373.25 542.401L373.352 543.356C373.861 548.129 375.831 551.523 379.264 553.539C382.69 555.491 387.617 556.125 394.045 555.44ZM497.047 529.118C499.94 530.29 502.212 531.979 503.862 534.185C505.507 536.327 506.488 538.893 506.807 541.884L506.908 542.839C507.484 548.248 505.803 552.707 501.865 556.216C497.919 559.661 492.097 561.794 484.396 562.614L443.826 566.936L437.155 504.314L475.912 500.186C483.676 499.359 489.818 500.217 494.336 502.761C498.855 505.305 501.406 509.313 501.989 514.786L502.091 515.741C502.674 521.214 500.993 525.673 497.047 529.118ZM458.071 518.499L458.885 526.135L478.454 524.051C481.891 523.685 483.49 522.388 483.253 520.161L483.151 519.206C482.914 516.979 481.077 516.048 477.641 516.414L458.071 518.499ZM486.963 541.391C486.712 539.036 484.868 538.042 481.432 538.408L460.43 540.645L461.285 548.664L482.286 546.427C485.722 546.061 487.315 544.7 487.064 542.346L486.963 541.391Z" fill="#F0C243"/>
<path d="M59.3325 525.014C54.2254 525.558 49.6234 525.179 45.5265 523.878C41.4773 522.571 38.2375 520.479 35.8069 517.6C33.3763 514.721 31.9475 511.277 31.5204 507.268C31.3171 505.359 31.3224 503.596 31.5365 501.98L31.611 501.321C32.3809 494.046 35.1134 488.204 39.8087 483.794C44.4989 479.336 50.7818 476.688 58.6572 475.849C63.812 475.3 68.414 475.678 72.4632 476.985C76.5601 478.286 79.8238 480.376 82.2544 483.255C84.685 486.134 86.1138 489.578 86.5409 493.587C86.7087 495.162 86.7033 496.925 86.5248 498.875L86.4503 499.534C85.6855 506.857 82.9555 512.723 78.2602 517.133C73.5649 521.543 67.2557 524.17 59.3325 525.014ZM58.7249 515.231C63.6411 514.708 67.5309 513.159 70.3944 510.585C73.2579 508.011 74.9621 504.523 75.5068 500.121L75.6225 499.167C75.7939 497.604 75.8313 496.369 75.7347 495.462C75.3585 491.93 73.7008 489.283 70.7615 487.52C67.87 485.753 64.0378 485.123 59.2648 485.632C54.3486 486.155 50.4613 487.728 47.6029 490.349C44.7871 492.918 43.083 496.406 42.4905 500.814L42.3749 501.767C42.1984 503.283 42.1609 504.517 42.2626 505.472C42.6338 508.956 44.2651 511.582 47.1566 513.35C50.0958 515.113 53.9519 515.74 58.7249 515.231ZM141.939 467.847L140.982 477.217L108.549 480.672L107.4 490.279L124.082 488.502C129.094 487.969 133.146 488.623 136.238 490.466C139.379 492.304 141.15 495.108 141.551 498.878C141.648 499.785 141.641 500.848 141.529 502.067L141.47 502.87C140.822 511.289 134.937 516.092 123.816 517.276L93.1737 520.54L98.6238 472.461L141.939 467.847ZM123.699 508.021C128.186 507.543 130.558 505.794 130.816 502.773L130.946 501.963C130.981 501.38 130.988 500.993 130.968 500.802C130.825 499.466 130.143 498.501 128.921 497.907C127.695 497.265 126.031 497.056 123.931 497.28L106.462 499.141L105.156 509.996L123.699 508.021ZM165.719 465.314L162.202 497.548L191.565 462.561L202.448 461.402L196.998 509.481L186.115 510.64L189.633 478.407L160.269 513.393L149.387 514.553L154.837 466.473L165.719 465.314ZM253.868 503.424L242.914 504.59L247.358 466.103L227.176 468.325L224.382 488.318C223.473 494.738 221.694 499.562 219.045 502.788C216.391 505.967 212.486 507.831 207.331 508.381L202.534 508.891L203.653 498.997L205.657 498.784C207.614 498.575 209.156 498.097 210.284 497.35C211.458 496.597 212.375 495.462 213.034 493.943C213.688 492.377 214.188 490.272 214.534 487.629L218.294 459.714L259.318 455.344L253.868 503.424ZM281.222 453.011L277.705 485.245L307.068 450.258L317.951 449.098L312.5 497.178L301.618 498.337L305.136 466.103L275.772 501.09L264.89 502.25L270.34 454.17L281.222 453.011ZM370.883 443.46L369.855 452.838L338.926 456.132L337.736 466.034L367.161 462.9L366.204 472.27L336.707 475.412L335.525 485.385L366.382 482.098L365.362 491.547L323.55 496.001L329 447.921L370.883 443.46Z" fill="#F0C243"/>
</svg>
